<?xml version="1.0" encoding="UTF-8" standalone="no"?>
<!-- Generator: Adobe Illustrator 19.2.1, SVG Export Plug-In . SVG Version: 6.00 Build 0)  -->

<svg
   version="1.1"
   id="layer"
   x="0px"
   y="0px"
   viewBox="0 0 36 36"
   xml:space="preserve"
   sodipodi:docname="logomark-dark.svg"
   width="36"
   height="36"
   inkscape:version="1.3.2 (091e20ef0f, 2023-11-25)"
   xmlns:inkscape="http://www.inkscape.org/namespaces/inkscape"
   xmlns:sodipodi="http://sodipodi.sourceforge.net/DTD/sodipodi-0.dtd"
   xmlns="http://www.w3.org/2000/svg"
   xmlns:svg="http://www.w3.org/2000/svg"><defs
   id="defs1">
	
	
	
	
	
	
	
	
	
	
</defs><sodipodi:namedview
   id="namedview1"
   pagecolor="#ffffff"
   bordercolor="#000000"
   borderopacity="0.25"
   inkscape:showpageshadow="2"
   inkscape:pageopacity="0.0"
   inkscape:pagecheckerboard="0"
   inkscape:deskcolor="#d1d1d1"
   inkscape:zoom="1.2346626"
   inkscape:cx="212.60869"
   inkscape:cy="-46.571428"
   inkscape:window-width="1920"
   inkscape:window-height="1043"
   inkscape:window-x="1920"
   inkscape:window-y="0"
   inkscape:window-maximized="1"
   inkscape:current-layer="layer" />
<style
   type="text/css"
   id="style1">
	.st0{fill:#091F35;}
	.st1{fill:#E02043;}
</style>

<path
   style="fill:#000000;stroke-width:0.147541"
   d="m 11.83806,31.39181 0.039,-4.60819 3.30217,-2.76886 c 1.81619,-1.52287 3.34324,-2.76645 3.39344,-2.76351 0.0502,0.003 0.22406,0.28166 0.38636,0.61938 0.16229,0.33771 0.47008,0.74097 0.68396,0.89612 0.44703,0.32427 1.49119,0.47867 2.26079,0.33429 l 0.52877,-0.0992 0.51165,-0.44923 0.51164,-0.44924 0.22602,-0.7607 0.22603,-0.7607 0.0835,-1.69672 0.0835,-1.69673 -0.14309,-1.20857 -0.14308,-1.20857 -0.31967,-0.66036 c -0.17582,-0.36319 -0.499,-0.78204 -0.71817,-0.93077 l -0.39849,-0.27041 -1.01927,-0.026 -1.01926,-0.0259 -0.27369,-1.08061 c -0.22601,-0.89233 -0.5369,-1.63808 -1.41952,-3.40515 -0.0306,-0.0613 0.49773,-0.3759 1.1741,-0.69914 l 1.22977,-0.58771 1.14344,-0.15707 1.14345,-0.15707 1.09143,0.1518 c 1.40875,0.19594 2.5611,0.63289 3.46145,1.3125 1.28497,0.96993 1.72914,1.65889 2.26757,3.51716 l 0.33528,1.15719 V 18 23.09017 l -0.33528,1.15719 c -0.41892,1.44582 -0.6451,1.88465 -1.38525,2.68761 -0.79064,0.85775 -1.75895,1.44994 -2.97944,1.82215 l -1.01144,0.30846 -1.42298,-0.002 -1.42298,-0.002 -0.77666,-0.20675 c -0.82132,-0.21864 -1.9228,-0.79963 -2.23953,-1.18126 -0.10416,-0.12551 -0.24825,-0.19181 -0.3202,-0.14734 l -0.13083,0.0809 v 4.19631 4.19621 H 15.12078 11.79901 Z M 0,14.45902 C 0,9.63935 0,0 0,0 h 6.63934 v 4.27869 4.27869 h 0.13272 c 0.073,0 0.47041,-0.22726 0.88316,-0.50501 0.95895,-0.64533 2.18217,-1.10204 3.25074,-1.21373 l 0.84104,-0.0879 1.04655,0.17652 c 0.57561,0.0971 1.43609,0.36075 1.91219,0.58591 l 0.86563,0.40938 0.72231,0.7223 0.7223,0.7223 0.49288,1.03788 c 0.27109,0.57083 0.59093,1.50072 0.71076,2.06642 l 0.21788,1.02856 -3e-4,2.58197 -2.9e-4,2.58196 -3.22487,2.69263 c -1.77381,1.48094 -3.26294,2.69262 -3.30931,2.69262 -0.0464,0 -0.10432,-2.14119 -0.12877,-4.7582 l -0.0444,-4.75819 -0.297,-0.50551 -0.29699,-0.50551 -0.66202,-0.35455 -0.66202,-0.35455 -0.77605,0.0608 -0.77604,0.0608 -0.55183,0.44377 c -0.3035,0.24407 -0.65141,0.63691 -0.77313,0.87298 l -0.22132,0.42922 -0.0423,7.11885 -0.0423,7.11886 H 3.3143 0 c 0,0 0,-9.63935 0,-14.45902 z"
   id="path1"
   sodipodi:nodetypes="ccssssscccccccccsscccssscccssscccssscccsssccccccsccccssscsscccssccccsscccccccsscccccs" /></svg>
