<?xml version="1.0" encoding="UTF-8" standalone="no"?>
<!-- Generator: Adobe Illustrator 19.2.1, SVG Export Plug-In . SVG Version: 6.00 Build 0)  -->

<svg
   version="1.1"
   id="layer"
   x="0px"
   y="0px"
   viewBox="0 0 184 36"
   xml:space="preserve"
   sodipodi:docname="hello-paisa-logo-vector.svg"
   width="184"
   height="36"
   inkscape:version="1.3.2 (091e20ef0f, 2023-11-25)"
   xmlns:inkscape="http://www.inkscape.org/namespaces/inkscape"
   xmlns:sodipodi="http://sodipodi.sourceforge.net/DTD/sodipodi-0.dtd"
   xmlns="http://www.w3.org/2000/svg"
   xmlns:svg="http://www.w3.org/2000/svg"><defs
   id="defs1">
	
	
	
	
	
	
	
	
	
	
</defs><sodipodi:namedview
   id="namedview1"
   pagecolor="#ffffff"
   bordercolor="#000000"
   borderopacity="0.25"
   inkscape:showpageshadow="2"
   inkscape:pageopacity="0.0"
   inkscape:pagecheckerboard="0"
   inkscape:deskcolor="#d1d1d1"
   inkscape:zoom="1.2346626"
   inkscape:cx="308.9913"
   inkscape:cy="68.439752"
   inkscape:window-width="1920"
   inkscape:window-height="1011"
   inkscape:window-x="0"
   inkscape:window-y="0"
   inkscape:window-maximized="1"
   inkscape:current-layer="layer" />
<style
   type="text/css"
   id="style1">
	.st0{fill:#091F35;}
	.st1{fill:#E02043;}
</style>
<path
   id="Path_5948"
   class="st0"
   d="M 11.925,28.74375 V 15.72187 c 0,-0.50625 -0.140625,-0.98437 -0.365625,-1.43437 -0.140625,-0.36563 -0.39375,-0.70313 -0.73125,-0.9 -0.253125,-0.225 -0.5625,-0.36563 -0.9,-0.36563 -0.365625,0 -0.534375,-0.16875 -0.73125,-0.16875 -0.253125,-0.0281 -0.50625,0.0281 -0.73125,0.16875 -0.365625,0 -0.534375,0.16875 -0.9,0.36563 -0.28125,0.25312 -0.534375,0.5625 -0.73125,0.9 -0.225,0.45 -0.3375,0.95625 -0.365625,1.43437 V 28.74375 H 0 V 0.19687 h 6.496875 v 8.6625 C 7.115625,8.15625 7.93125,7.65 8.859375,7.425 c 0.7875,-0.3375 1.659375,-0.53438 2.53125,-0.53438 1.040625,0 2.08125,0.16875 3.065625,0.53438 0.871875,0.3375 1.603125,0.9 2.165625,1.63125 0.61875,0.73125 1.06875,1.60312 1.265625,2.53125 0.309375,0.98437 0.421875,2.025 0.365625,3.06562 V 28.575 H 11.925 Z"
   style="fill:#171414;fill-opacity:1;stroke-width:0.28125" /><path
   id="Path_5949"
   class="st0"
   d="m 26.71875,20.25 c -0.02813,1.88437 1.490625,3.43125 3.375,3.45938 0.140625,0 0.28125,0 0.39375,-0.0281 0.928125,0.0281 1.85625,-0.14063 2.7,-0.53437 0.646875,-0.36563 1.2375,-0.78751 1.8,-1.26563 l 3.965625,3.96563 c -0.50625,0.53437 -1.040625,1.01249 -1.63125,1.43437 -0.590625,0.39375 -1.18125,0.75937 -1.8,1.09688 -0.703125,0.30937 -1.434375,0.5625 -2.165625,0.73124 -0.9,0.16876 -1.8,0.22501 -2.7,0.16876 -1.209375,-0.0281 -2.41875,-0.14063 -3.628125,-0.36563 -1.18125,-0.30938 -2.278125,-0.87188 -3.2625,-1.63125 -1.06875,-0.92813 -1.85625,-2.10938 -2.334375,-3.43125 -0.646875,-1.8 -0.95625,-3.68438 -0.9,-5.59687 -0.05625,-1.60313 0.196875,-3.17813 0.73125,-4.69688 0.39375,-1.26563 1.06875,-2.44688 1.996875,-3.43125 0.871875,-0.92813 1.9125,-1.65937 3.065625,-2.16562 1.209375,-0.50626 2.503125,-0.75938 3.796875,-0.73126 1.434375,-0.0562 2.840625,0.19688 4.1625,0.73126 1.153125,0.50625 2.19375,1.23749 3.065625,2.16562 0.871875,0.9 1.490625,2.025 1.8,3.2625 0.421875,1.29375 0.675,2.61563 0.73125,3.96563 v 2.89687 z m 6.328125,-4.52813 v -0.9 c 0,-0.36562 -0.16875,-0.53437 -0.365625,-0.9 -0.196875,-0.53437 -0.590625,-0.98437 -1.096875,-1.26562 -0.534375,-0.36563 -1.153125,-0.5625 -1.8,-0.53438 -0.646875,-0.0562 -1.29375,0.14063 -1.8,0.53438 -0.45,0.3375 -0.815625,0.75937 -1.096875,1.26562 -0.16875,0.36563 -0.16875,0.53438 -0.365625,0.9 v 0.9 z"
   style="fill:#171414;fill-opacity:1;stroke-width:0.28125" /><path
   id="Path_5950"
   class="st0"
   d="M 48.0375,28.74375 C 46.996875,28.77188 45.95625,28.575 44.971875,28.20938 44.2125,27.87187 43.5375,27.39375 42.975,26.775 42.440625,26.18437 42.01875,25.50937 41.709375,24.77812 41.5125,24.075 41.371875,23.34375 41.34375,22.6125 V 0.39375 h 6.496875 v 21.68437 c 0,0.9 0.365625,1.26563 1.265625,1.26563 h 2.3625 v 5.59687 H 48.0375 Z"
   style="fill:#171414;fill-opacity:1;stroke-width:0.28125" /><path
   id="Path_5951"
   class="st0"
   d="M 59.625,28.74375 C 58.584375,28.77188 57.54375,28.575 56.559375,28.20938 55.8,27.87187 55.125,27.39375 54.5625,26.775 54.028125,26.18437 53.60625,25.50937 53.296875,24.77812 53.1,24.075 52.959375,23.34375 52.93125,22.6125 V 0.39375 h 6.496875 v 21.68437 c 0,0.9 0.365625,1.26563 1.265625,1.26563 h 2.3625 v 5.59687 H 59.625 Z"
   style="fill:#171414;fill-opacity:1;stroke-width:0.28125" /><path
   id="Path_5952"
   class="st0"
   d="m 81.84375,18.08438 c 0.0281,0.95624 -0.0281,1.94062 -0.16875,2.89687 -0.0281,0.73125 -0.14062,1.4625 -0.36562,2.16563 -0.14063,0.64687 -0.36563,1.26562 -0.73125,1.79999 -0.30938,0.50625 -0.675,0.98438 -1.09688,1.43438 -0.815625,0.7875 -1.715625,1.4625 -2.7,1.99688 -2.75625,1.20937 -5.90625,1.20937 -8.6625,0 -1.0125,-0.50626 -1.9125,-1.18126 -2.7,-1.99688 -0.478125,-0.39375 -0.84375,-0.87188 -1.096875,-1.43438 -0.3375,-0.5625 -0.590625,-1.15312 -0.73125,-1.79999 -0.196875,-0.70313 -0.3375,-1.43438 -0.365625,-2.16563 0,-0.73125 -0.16875,-1.8 -0.16875,-2.89687 C 63,17.18437 63.08438,16.25625 63.225,15.38437 c 0,-0.73125 0.1125,-1.4625 0.365625,-2.16562 0.140625,-0.64688 0.365625,-1.26563 0.73125,-1.8 0.309375,-0.50625 0.675,-0.98438 1.096875,-1.43438 L 66.515625,8.8875 c 0.45,-0.3375 0.928125,-0.64688 1.434375,-0.9 0.534375,-0.16875 1.265625,-0.53438 1.996875,-0.73125 1.546875,-0.25312 3.15,-0.25312 4.696875,0 0.703125,0.16875 1.35,0.39375 1.996875,0.73125 0.534375,0.19687 1.040625,0.50625 1.434375,0.9 0.365625,0.36563 0.9,0.73125 1.096875,1.09687 0.478125,0.39375 0.843755,0.87188 1.096875,1.43438 0.3375,0.5625 0.59063,1.15312 0.73125,1.8 0.19688,0.70312 0.3375,1.43437 0.36563,2.16562 0.39375,0.7875 0.59062,1.74375 0.47812,2.70001 m -6.525,0 C 75.375,17.18437 75.29062,16.25625 75.15,15.38437 75.009375,14.7375 74.784375,14.11875 74.41875,13.58438 73.9125,13.1625 73.265625,12.96562 72.61875,13.05 c -0.646875,-0.0563 -1.29375,0.14063 -1.8,0.53438 -0.45,0.50624 -0.703125,1.125 -0.73125,1.79999 -0.253125,1.8 -0.253125,3.62813 0,5.42813 0.140625,0.64688 0.365625,1.26562 0.73125,1.8 0.50625,0.42187 1.153125,0.61875 1.8,0.53437 0.646875,0.0563 1.29375,-0.14062 1.8,-0.53437 0.45,-0.50625 0.703125,-1.125 0.73125,-1.8 0.16875,-0.92813 0.225,-1.82813 0.16875,-2.72812"
   style="fill:#171414;fill-opacity:1;stroke-width:0.28125" /><path
   id="Path_5953"
   class="st1"
   d="m 102.6,18.08438 v 2.53125 c 0.0281,0.84375 -0.0281,1.6875 -0.16875,2.53125 -0.16875,0.73125 -0.36562,1.63124 -0.53437,2.36249 -0.25313,0.70313 -0.675,1.32188 -1.26563,1.8 -1.43437,1.29375 -3.31875,1.99688 -5.23125,1.99688 -0.92812,0 -1.82812,-0.14063 -2.7,-0.36563 C 91.94063,28.63125 91.2375,28.125 90.70313,27.50625 V 36 h -6.525 V 7.425 h 6.32812 v 1.8 c 0.64688,-0.59063 1.37813,-1.09688 2.16563,-1.43438 0.9,-0.39375 1.88437,-0.59062 2.89687,-0.53437 0.98438,0 1.96875,0.16875 2.89688,0.53437 0.84375,0.36563 1.63125,0.87188 2.3625,1.43438 0.53437,0.53437 0.95625,1.125 1.26562,1.8 0.28125,0.75937 0.47813,1.54687 0.53438,2.3625 0.16875,0.84375 0.225,1.6875 0.16875,2.53125 -0.16875,0.70312 -0.225,1.43437 -0.19688,2.16562 m -6.49687,0 v -2.16562 c -0.0281,-0.5625 -0.16875,-1.09688 -0.36563,-1.63125 -0.25312,-0.39375 -0.5625,-0.75938 -0.9,-1.09688 -0.9,-0.47812 -1.99687,-0.47812 -2.89687,0 -0.42188,0.225 -0.75938,0.61875 -0.9,1.09688 C 90.7875,14.79375 90.675,15.35625 90.675,15.91875 V 20.25 c 0.0281,0.5625 0.16875,1.09687 0.36563,1.63125 0.25312,0.39375 0.5625,0.75937 0.9,1.09687 0.9,0.47813 1.99687,0.47813 2.89687,0 0.42188,-0.225 0.75938,-0.61875 0.9,-1.09687 C 95.99063,21.375 96.10313,20.8125 96.10313,20.25 v -2.16563"
   style="fill:#565151;fill-opacity:1;stroke-width:0.28125" /><path
   id="Path_5954"
   class="st1"
   d="m 115.25625,28.74375 v -1.8 c -0.5625,0.59063 -1.2375,1.09687 -1.99687,1.43438 -0.84375,0.39375 -1.77188,0.5625 -2.7,0.53437 -0.98438,0 -1.96875,-0.16875 -2.89688,-0.53437 -0.84375,-0.25313 -1.60312,-0.75938 -2.16562,-1.43438 -0.61875,-0.61875 -1.125,-1.35 -1.43438,-2.16563 -0.36562,-0.92812 -0.5625,-1.91249 -0.53437,-2.89687 0.0281,-0.7875 0.14062,-1.575 0.36562,-2.3625 0.61875,-1.63125 1.94063,-2.89688 3.62812,-3.43125 1.04063,-0.39375 2.13751,-0.5625 3.26251,-0.53437 h 4.33125 V 15.1875 c 0.0563,-0.7875 -0.19688,-1.575 -0.73125,-2.16562 C 113.625,12.6 112.725,12.40312 111.85313,12.4875 c -0.675,0 -1.35,0.1125 -1.99688,0.36562 -0.5625,0.25313 -1.06875,0.61876 -1.43437,1.09688 l -4.1625,-4.1625 C 104.76563,9.25313 105.3,8.775 105.89063,8.35312 106.425,7.95938 107.04375,7.65 107.69062,7.45312 108.225,7.28438 108.95625,7.0875 109.6875,6.91875 110.53125,6.75 111.375,6.69375 112.21875,6.75 c 2.50312,-0.14063 4.97813,0.5625 7.05938,1.99687 1.63125,1.26563 2.3625,3.2625 2.3625,5.96251 V 28.63125 H 115.3125 Z M 115.0875,20.25 h -3.2625 c -0.53437,-0.0563 -1.06875,0.14062 -1.43437,0.53437 -0.70313,0.675 -0.73126,1.77188 -0.0563,2.475 0.0281,0.0281 0.0281,0.0281 0.0563,0.0562 0.45,0.39375 1.04062,0.59063 1.63124,0.53438 0.47813,0.0563 0.98438,0 1.43438,-0.16875 0.39375,-0.16875 0.75938,-0.42188 1.09687,-0.73125 0.50626,-0.59063 0.75938,-1.37813 0.73126,-2.16563 V 20.25 Z"
   style="fill:#565151;fill-opacity:1;stroke-width:0.28125" /><path
   id="Path_5955"
   class="st1"
   d="m 124.28438,0 h 6.49687 v 5.0625 h -6.49687 z m 0,8.12812 h 6.49687 V 28.9125 h -6.49687 z"
   style="fill:#565151;fill-opacity:1;stroke-width:0.28125" /><path
   id="Path_5956"
   class="st1"
   d="m 150.49688,21.68437 c 0.0563,1.125 -0.19688,2.25 -0.73125,3.2625 -0.5625,0.87188 -1.2375,1.65938 -1.99688,2.3625 -0.87188,0.59063 -1.85625,1.04063 -2.89687,1.26563 -1.18125,0.30937 -2.39063,0.42187 -3.62813,0.36562 h -2.3625 c -0.7875,-0.0281 -1.575,-0.14062 -2.3625,-0.36562 -0.81562,-0.225 -1.60312,-0.53438 -2.3625,-0.9 -0.87187,-0.47813 -1.65937,-1.06875 -2.33437,-1.8 l 4.1625,-4.1625 c 0.45,0.42187 0.92812,0.7875 1.43437,1.09687 0.53438,0.16875 0.9,0.36563 1.43438,0.53438 0.39375,0.14062 0.84375,0.19687 1.26562,0.16875 h 1.99688 c 0.36562,0 0.53437,-0.16875 0.9,-0.16875 0.36562,-0.16875 0.53437,-0.16875 0.73125,-0.36563 0.225,-0.16875 0.36562,-0.45 0.36562,-0.73125 0,-0.36562 -0.16875,-0.53437 -0.36562,-0.9 -0.16875,-0.36562 -0.53438,-0.36562 -1.26563,-0.53437 l -3.2625,-0.36563 c -0.87187,0 -1.74375,-0.16875 -2.53125,-0.53437 -0.70312,-0.25313 -1.37812,-0.61875 -1.99687,-1.09688 -0.53438,-0.53437 -0.95625,-1.125 -1.26563,-1.8 -0.39375,-0.84375 -0.5625,-1.77187 -0.53437,-2.7 -0.0563,-1.06875 0.19687,-2.1375 0.73125,-3.06562 0.45,-0.87188 1.15312,-1.63125 1.99687,-2.16563 0.7875,-0.64687 1.71563,-1.06875 2.7,-1.26562 0.98438,-0.30938 2.025,-0.42188 3.06563,-0.36563 1.575,-0.0281 3.15,0.14063 4.69687,0.53438 1.43438,0.36562 2.75625,1.09687 3.79688,2.16562 l -3.96563,3.96563 c -0.5625,-0.53437 -1.2375,-0.9 -1.99687,-1.09688 -0.84375,-0.14062 -1.6875,-0.19687 -2.53125,-0.16875 -0.5625,0 -1.125,0.1125 -1.63125,0.36563 -0.36563,0.36563 -0.53438,0.53437 -0.53438,0.73125 v 0.16875 c 0,0.16875 0,0.16875 0.16875,0.36562 0,0.16875 0.16875,0.16875 0.36563,0.36563 0.28125,0.16875 0.59062,0.225 0.9,0.16875 l 3.2625,0.36563 c 0.98437,0.11249 1.96875,0.36562 2.89687,0.73125 0.75938,0.33749 1.43438,0.81562 1.99688,1.43437 0.95625,1.20938 1.51875,2.61563 1.6875,4.13438"
   style="fill:#565151;fill-opacity:1;stroke-width:0.28125" /><path
   id="Path_5957"
   class="st1"
   d="m 162.42188,28.74375 v -1.8 c -0.5625,0.59063 -1.2375,1.09687 -1.99688,1.43438 -0.84375,0.39375 -1.77187,0.5625 -2.7,0.53437 -0.98437,0 -1.96875,-0.16875 -2.89687,-0.53437 -0.84375,-0.25313 -1.60313,-0.75938 -2.16563,-1.43438 -0.61875,-0.61875 -1.125,-1.35 -1.43437,-2.16563 -0.36563,-0.92812 -0.5625,-1.91249 -0.53438,-2.89687 0.0281,-0.7875 0.14063,-1.575 0.36563,-2.3625 0.61875,-1.63125 1.94062,-2.89688 3.62812,-3.43125 1.04063,-0.39375 2.1375,-0.5625 3.2625,-0.53437 h 4.33125 V 15.1875 c 0.0563,-0.7875 -0.19688,-1.575 -0.73125,-2.16562 -0.75937,-0.42188 -1.65937,-0.61876 -2.53125,-0.53438 -0.675,0 -1.35,0.1125 -1.99688,0.36562 -0.5625,0.25313 -1.06874,0.61876 -1.43437,1.09688 l -4.19063,-4.19063 c 0.50625,-0.53437 1.04063,-1.0125 1.63125,-1.43437 0.53438,-0.39375 1.15313,-0.70313 1.8,-0.9 0.53438,-0.16875 1.26563,-0.36563 1.99688,-0.53438 0.84375,-0.16874 1.6875,-0.225 2.53125,-0.16874 2.50312,-0.14063 4.97812,0.5625 7.05938,1.99687 1.63124,1.26562 2.36249,3.2625 2.36249,5.9625 V 28.60313 H 162.45 Z M 162.225,20.25 h -3.23437 c -0.53438,-0.0563 -1.06875,0.14062 -1.43438,0.53437 -0.70312,0.675 -0.73125,1.77188 -0.0563,2.475 0.0281,0.0281 0.0281,0.0281 0.0563,0.0562 0.45,0.39375 1.04063,0.59063 1.63125,0.53438 0.47813,0.0563 0.98438,0 1.43438,-0.16875 0.39375,-0.16875 0.75937,-0.42188 1.09687,-0.73125 0.50625,-0.59063 0.75938,-1.37813 0.73125,-2.16563 V 20.25 Z"
   style="fill:#565151;fill-opacity:1;stroke-width:0.28125" />
</svg>
