<?xml version="1.0" encoding="UTF-8" standalone="no"?>
<svg
   width="184"
   height="36"
   viewBox="0 0 184 36"
   fill="none"
   version="1.1"
   id="svg1"
   sodipodi:docname="logo-dark.svg"
   inkscape:version="1.3.2 (091e20ef0f, 2023-11-25)"
   xmlns:inkscape="http://www.inkscape.org/namespaces/inkscape"
   xmlns:sodipodi="http://sodipodi.sourceforge.net/DTD/sodipodi-0.dtd"
   xmlns="http://www.w3.org/2000/svg"
   xmlns:svg="http://www.w3.org/2000/svg">
  <defs
     id="defs1" />
  <sodipodi:namedview
     id="namedview1"
     pagecolor="#ffffff"
     bordercolor="#000000"
     borderopacity="0.25"
     inkscape:showpageshadow="2"
     inkscape:pageopacity="0.0"
     inkscape:pagecheckerboard="0"
     inkscape:deskcolor="#d1d1d1"
     inkscape:zoom="3.2777778"
     inkscape:cx="36"
     inkscape:cy="17.847458"
     inkscape:window-width="1920"
     inkscape:window-height="1043"
     inkscape:window-x="1920"
     inkscape:window-y="0"
     inkscape:window-maximized="1"
     inkscape:current-layer="svg1" />
  <path
     d="M 92,0 C 72.116,0 56,8.064 56,18 c 0,9.936 16.116,18 36,18 19.884,0 36,-8.064 36,-18 C 128,8.064 111.884,0 92,0 Z m 0,33.156 C 73.688,33.156 58.844,26.364 58.844,18 58.844,9.636 73.688,2.844 92,2.844 c 18.312,0 33.156,6.78 33.156,15.156 0,8.376 -14.844,15.156 -33.156,15.156 z M 87.464,14.844 V 12 h 10.152 v 2.844 h -3.66 V 24 H 91.112 V 14.844 Z M 109.88,12 v 12 h -2.844 l -5.16,-7.14 V 24 H 99.032 V 12 h 2.844 l 5.16,7.14 V 12 Z M 74.036,24 V 12 h 2.844 l 3.156,4.86 3.156,-4.86 h 2.844 v 12 h -2.844 v -6.792 l -2.16,3.312 H 79.04 L 76.88,17.208 V 24 Z"
     fill="#171414"
     id="path1" />
</svg>
