<svg width="184" height="36"
	 viewBox="0 0 72 36" fill="none" xmlns="http://www.w3.org/2000/svg">
<path fill-rule="evenodd" clip-rule="evenodd" d="M 36,0
C 16.116,0 0,8.064 0,18 0,27.936 16.116,36 36,36 55.884,36 72,27.936 72,18 72,8.064 55.884,0 36,0
Z

m 0,33.156
C 17.688,33.156 2.844,26.364 2.844,18 2.844,9.636 17.688,2.844 36,2.844 54.312,2.844 69.156,9.624 69.156,18 69.156,26.376 54.312,33.156 36,33.156
Z

M 31.464,14.844
V 12
h 10.152
v 2.844
h -3.66
V 24
H 35.112
V 14.844
Z

M 53.88,12
v 12
h -2.844
l -5.16,-7.14
V 24
H 43.032
V 12
h 2.844
l 5.16,7.14
V 12
Z

M 18.036,24
V 12
h 2.844
l 3.156,4.86 3.156,-4.86
h 2.844
v 12
h -2.844
v -6.792
l -2.16,3.312
H 23.04
L 20.88,17.208
V 24
Z" fill="#ffffff"/>
</svg>
