<?xml version="1.0" encoding="UTF-8" standalone="no"?>
<svg
   width="184"
   height="36"
   version="1.1"
   viewBox="0 0 46.355 36"
   id="svg3"
   sodipodi:docname="logo-dark.svg"
   inkscape:version="1.3.2 (091e20ef0f, 2023-11-25)"
   xmlns:inkscape="http://www.inkscape.org/namespaces/inkscape"
   xmlns:sodipodi="http://sodipodi.sourceforge.net/DTD/sodipodi-0.dtd"
   xmlns="http://www.w3.org/2000/svg"
   xmlns:svg="http://www.w3.org/2000/svg">
  <defs
     id="defs3" />
  <sodipodi:namedview
     id="namedview3"
     pagecolor="#ffffff"
     bordercolor="#000000"
     borderopacity="0.25"
     inkscape:showpageshadow="2"
     inkscape:pageopacity="0.0"
     inkscape:pagecheckerboard="0"
     inkscape:deskcolor="#d1d1d1"
     inkscape:zoom="8"
     inkscape:cx="92.1875"
     inkscape:cy="17.5625"
     inkscape:window-width="1920"
     inkscape:window-height="1011"
     inkscape:window-x="0"
     inkscape:window-y="32"
     inkscape:window-maximized="1"
     inkscape:current-layer="svg3" />
  <path
     d="m8.4015 35.921v-2.3892c0-0.91392-0.5567-1.5124-1.5124-1.5124-0.47784 0-0.99742 0.15773-1.3546 0.67732-0.27835-0.43608-0.67732-0.67732-1.2758-0.67732-0.39897 0-0.79794 0.12062-1.1134 0.5567v-0.47784h-0.83505v3.8227h0.83505v-2.1108c0-0.67732 0.35722-0.99742 0.91392-0.99742 0.5567 0 0.83505 0.35722 0.83505 0.99742v2.1108h0.83505v-2.1108c0-0.67732 0.39897-0.99742 0.91392-0.99742 0.5567 0 0.83505 0.35722 0.83505 0.99742v2.1108zm12.387-3.8227h-1.3546v-1.1552h-0.83505v1.1552h-0.75619v0.75618h0.75619v1.7536c0 0.8768 0.35722 1.3918 1.3129 1.3918 0.35722 0 0.75619-0.12062 1.0345-0.27835l-0.24124-0.71907c-0.24124 0.15773-0.51959 0.19948-0.71907 0.19948-0.39897 0-0.5567-0.24124-0.5567-0.63557v-1.7119h1.3546v-0.75618zm7.0887-0.08351c-0.47784 0-0.79794 0.24124-0.99742 0.5567v-0.47783h-0.83505v3.8227h0.83505v-2.1526c0-0.63557 0.27835-0.99742 0.79794-0.99742 0.15773 0 0.35722 0.04175 0.51959 0.07887l0.24124-0.79794c-0.16701-0.03248-0.40361-0.03248-0.56134-0.03248zm-10.712 0.39897c-0.39897-0.27835-0.95567-0.39897-1.5541-0.39897-0.95567 0-1.5912 0.47784-1.5912 1.234 0 0.63557 0.47784 0.99742 1.3129 1.1134l0.39897 0.04175c0.43608 0.07887 0.67732 0.19948 0.67732 0.39897 0 0.27835-0.3201 0.47784-0.8768 0.47784s-0.99742-0.19948-1.2758-0.39897l-0.39897 0.63557c0.43608 0.3201 1.0345 0.47784 1.633 0.47784 1.1134 0 1.7536-0.51959 1.7536-1.234 0-0.67732-0.51959-1.0345-1.3129-1.1552l-0.39897-0.04175c-0.35722-0.04175-0.63557-0.12062-0.63557-0.35722 0-0.27835 0.27835-0.43608 0.71907-0.43608 0.47784 0 0.95567 0.19948 1.1969 0.3201zm22.217-0.39897c-0.47784 0-0.79794 0.24124-0.99742 0.5567v-0.47784h-0.83505v3.8227h0.83505v-2.1526c0-0.63557 0.27835-0.99742 0.79794-0.99742 0.15773 0 0.35722 0.04175 0.51959 0.07887l0.24124-0.78866c-0.16237-0.04175-0.39897-0.04175-0.56134-0.04175zm-10.67 1.9948c0 1.1552 0.79794 1.9902 2.032 1.9902 0.5567 0 0.95567-0.12062 1.3546-0.43608l-0.39897-0.67732c-0.3201 0.24124-0.63557 0.35722-0.99742 0.35722-0.67732 0-1.1552-0.47784-1.1552-1.234 0-0.71907 0.47784-1.1969 1.1552-1.234 0.35722 0 0.67732 0.12062 0.99742 0.35722l0.39897-0.67732c-0.39897-0.3201-0.79794-0.43608-1.3546-0.43608-1.234-0.0046-2.032 0.83505-2.032 1.9902zm7.7242 0v-1.9113h-0.83505v0.47784c-0.27835-0.35722-0.67732-0.5567-1.1969-0.5567-1.0763 0-1.9113 0.83505-1.9113 1.9902 0 1.1552 0.83505 1.9902 1.9113 1.9902 0.5567 0 0.95567-0.19948 1.1969-0.5567v0.47784h0.83505zm-3.0665 0c0-0.67732 0.43608-1.234 1.1552-1.234 0.67732 0 1.1552 0.51959 1.1552 1.234 0 0.67732-0.47784 1.234-1.1552 1.234-0.71443-0.04175-1.1552-0.56134-1.1552-1.234zm-9.9928-1.9948c-1.1134 0-1.9113 0.79794-1.9113 1.9902 0 1.1969 0.79794 1.9902 1.9531 1.9902 0.5567 0 1.1134-0.15773 1.5541-0.51959l-0.39897-0.59845c-0.3201 0.24124-0.71907 0.39897-1.1134 0.39897-0.51959 0-1.0345-0.24124-1.1552-0.91392h2.8253v-0.3201c0.03711-1.2294-0.68196-2.0273-1.7536-2.0273zm0 0.71907c0.51959 0 0.8768 0.3201 0.95567 0.91392h-1.9902c0.07887-0.51495 0.43608-0.91392 1.0345-0.91392zm20.746 1.2758v-3.4237h-0.83505v1.9902c-0.27835-0.35722-0.67732-0.5567-1.1969-0.5567-1.0763 0-1.9113 0.83505-1.9113 1.9902 0 1.1552 0.83505 1.9902 1.9113 1.9902 0.5567 0 0.95567-0.19948 1.1969-0.5567v0.47784h0.83505zm-3.0665 0c0-0.67732 0.43608-1.234 1.1552-1.234 0.67732 0 1.1552 0.51959 1.1552 1.234 0 0.67732-0.47784 1.234-1.1552 1.234-0.71907-0.04175-1.1552-0.56134-1.1552-1.234zm-27.956 0v-1.9113h-0.83505v0.47784c-0.27835-0.35722-0.67732-0.5567-1.1969-0.5567-1.0763 0-1.9113 0.83505-1.9113 1.9902 0 1.1552 0.83505 1.9902 1.9113 1.9902 0.5567 0 0.95567-0.19948 1.1969-0.5567v0.47784h0.83505zm-3.1036 0c0-0.67732 0.43608-1.234 1.1552-1.234 0.67732 0 1.1552 0.51959 1.1552 1.234 0 0.67732-0.47784 1.234-1.1552 1.234-0.71907-0.04175-1.1552-0.56134-1.1552-1.234z"
     fill="#fff"
     id="path1"
     style="fill:#171414;fill-opacity:1" />
  <rect
     transform="scale(.046392)"
     x="364"
     y="66.1"
     width="270.4"
     height="485.8"
     fill="#b3b3b3"
     id="rect1"
     style="fill:#666666" />
  <path
     transform="scale(.046392)"
     d="m382 309c0-98.7 46.4-186.3 117.6-242.9-52.4-41.2-118.5-66.1-190.6-66.1-170.8 0-309 138.2-309 309s138.2 309 309 309c72.1 0 138.2-24.9 190.6-66.1-71.3-55.8-117.6-144.2-117.6-242.9z"
     fill="#666"
     id="path2"
     style="fill:#b3b3b3" />
  <path
     transform="scale(.046392)"
     d="m999.2 309c0 170.8-138.2 309-309 309-72.1 0-138.2-24.9-190.6-66.1 72.1-56.7 117.6-144.2 117.6-242.9s-46.4-186.3-117.6-242.9c52.3-41.2 118.4-66.1 190.5-66.1 170.9 0 309.1 139.1 309.1 309z"
     fill="#fff"
     id="path3"
     style="fill:#171414;fill-opacity:1" />
</svg>
