<svg
   width="184"
   height="36.00"
   viewBox="0 0 92.689 36"
   xmlns="http://www.w3.org/2000/svg">
  <path
     id="path1-2"
     d="m 0,0 c -7.638,-1.793 -14.889,-4.163 -21.664,-7.06 5.85,1.539 11.914,2.794 18.169,3.737 0.641,0.096 1.283,0.183 1.924,0.272 z"
     style="fill:#ffffff;fill-opacity:1;fill-rule:nonzero;stroke:none"
     clip-path="url(#clipPath2)"
     transform="matrix(0.17459001,0,0,-0.17459001,66.153314,24.900512)" />
  <path
     id="path3"
     d="m 0,0 c -1.731,-0.261 -3.439,-0.559 -5.137,-0.877 l -1.7,-1.721 -2.215,-2.148 C 52.657,2.46 111.082,-23.65 130.973,-65.766 117.451,-20.331 59.657,8.963 0,0"
     style="fill:#ffffff;fill-opacity:1;fill-rule:nonzero;stroke:none"
     transform="matrix(0.17459001,0,0,-0.17459001,68.131259,24.517914)"
     clip-path="url(#clipPath4)" />
  <path
     id="path5"
     d="m 0,0 0.052,-0.053 c 0.697,0.036 1.442,0.081 2.183,0.081 0.748,0 1.494,-0.045 2.19,-0.081 L 4.469,0 V 0.466 L 4.425,0.519 C 3.696,0.534 3.55,0.628 3.372,0.936 2.931,1.681 2.445,2.846 -1.113,11.271 H -1.797 C -2.931,8.514 -4.595,4.68 -6.04,1.6 -6.49,0.628 -6.542,0.547 -7.526,0.519 L -7.579,0.466 V 0 l 0.053,-0.053 c 0.579,0.036 1.231,0.081 1.862,0.081 0.628,0 1.275,-0.045 1.858,-0.081 L -3.753,0 v 0.466 l -0.053,0.053 c -0.89,0.043 -1.307,0.06 -1.307,0.449 0,0.215 0.028,0.453 1.02,2.704 H 0.178 C 1.105,1.405 1.267,1.021 1.267,0.773 1.267,0.611 1.23,0.519 0.052,0.519 L 0,0.466 Z m -0.146,4.453 h -3.627 l 1.814,4.324 1.813,-4.324"
     style="fill:#ffffff;fill-rule:evenodd;stroke:none"
     transform="matrix(0.17459001,0,0,-0.17459001,1.3297014,28.882492)"
     clip-path="url(#clipPath6)" />
  <path
     id="path7"
     d="m 0,0 c -0.012,-0.862 -0.061,-0.96 -1.021,-0.939 v -0.498 c 0.794,0.036 1.401,0.056 1.871,0.056 0.47,0 1.065,-0.02 1.858,-0.056 v 0.514 C 1.737,-0.96 1.688,-0.862 1.688,0 v 5.363 c 0,0.864 0.049,0.964 1.02,0.924 V 6.801 C 1.915,6.765 1.32,6.744 0.85,6.744 c -0.47,0 -1.077,0.021 -1.871,0.057 V 6.299 C -0.061,6.327 -0.012,6.227 0,5.363 V 0"
     style="fill:#ffffff;fill-rule:nonzero;stroke:none"
     transform="matrix(0.17459001,0,0,-0.17459001,2.4740009,28.63646)"
     clip-path="url(#clipPath8)" />
  <path
     id="path9"
     d="m 0,0 c -0.012,-0.862 -0.061,-0.96 -1.016,-0.939 v -0.498 c 0.789,0.036 1.401,0.056 1.87,0.056 0.461,0 1.065,-0.02 1.85,-0.056 v 0.514 C 1.736,-0.96 1.688,-0.862 1.688,0 v 5.821 c 0,0.081 0.024,0.178 0.048,0.276 0.227,0.032 0.478,0.06 0.721,0.06 0.931,0 1.615,-0.502 1.615,-1.485 0,-1.13 -0.817,-1.815 -1.914,-1.713 L 2.073,2.74 4.757,-1.437 c 0.356,0.036 0.716,0.056 1.076,0.056 0.385,0 0.782,-0.02 1.162,-0.056 v 0.498 c -0.299,0.041 -0.66,0.291 -0.838,0.543 L 3.992,2.887 c 0.991,0.359 1.781,1.064 1.781,2.189 0,0.49 -0.057,0.757 -0.405,1.117 C 4.745,6.838 3.785,6.801 2.947,6.801 2.097,6.765 1.474,6.744 0.967,6.744 c -0.502,0 -1.133,0.021 -1.983,0.057 V 6.299 C -0.061,6.327 -0.012,6.227 0,5.363 V 0"
     style="fill:#ffffff;fill-rule:nonzero;stroke:none"
     transform="matrix(0.17459001,0,0,-0.17459001,3.4500965,28.63646)"
     clip-path="url(#clipPath10)" />
  <path
     id="path11"
     d="m 0,0 c -0.012,-0.862 -0.061,-0.96 -1.02,-0.939 v -0.498 c 0.79,0.036 1.405,0.056 1.87,0.056 0.466,0 1.065,-0.02 1.855,-0.056 v 0.514 C 1.737,-0.96 1.684,-0.862 1.684,0 v 5.761 c 0,0.085 -0.008,0.262 0.065,0.311 0.178,0.121 0.502,0.11 0.705,0.11 0.396,0 0.854,-0.134 1.113,-0.446 C 3.858,5.4 3.903,4.918 3.903,4.502 3.903,4.153 3.858,3.821 3.652,3.53 3.421,3.206 3.053,2.991 2.66,2.991 2.49,2.991 2.324,3.044 2.154,3.064 L 2.032,2.947 C 2.097,2.85 2.219,2.599 2.239,2.525 2.441,2.502 2.648,2.441 2.862,2.441 c 1.534,0 2.765,0.971 2.765,2.567 0,0.558 -0.178,1.004 -0.607,1.364 C 4.506,6.744 3.915,6.744 3.328,6.744 H -1.02 V 6.287 C -0.052,6.327 0,6.227 0,5.363 V 0"
     style="fill:#ffffff;fill-rule:nonzero;stroke:none"
     transform="matrix(0.17459001,0,0,-0.17459001,5.1103272,28.63646)"
     clip-path="url(#clipPath12)" />
  <path
     id="path13"
     d="m 0,0 c 2.761,0 4.575,1.664 4.575,4.481 0,2.68 -1.761,4.048 -4.336,4.048 -2.745,0 -4.554,-1.509 -4.554,-4.335 C -4.315,1.461 -2.684,0 0,0 M 0.118,7.857 C 1.077,7.857 1.733,7.534 2.223,6.684 2.656,5.919 2.777,5.008 2.777,4.133 2.777,2.445 2.19,0.672 0.203,0.672 c -0.948,0 -1.632,0.319 -2.114,1.149 -0.441,0.758 -0.607,1.701 -0.607,2.575 0,1.798 0.526,3.461 2.636,3.461"
     style="fill:#ffffff;fill-rule:evenodd;stroke:none"
     transform="matrix(0.17459001,0,0,-0.17459001,7.1261241,28.912834)"
     clip-path="url(#clipPath14)" />
  <path
     id="path15"
     d="m 0,0 c -0.012,-0.862 -0.057,-0.96 -1.021,-0.939 v -0.498 c 0.794,0.036 1.405,0.056 1.871,0.056 0.469,0 1.065,-0.02 1.858,-0.056 v 0.514 C 1.736,-0.96 1.692,-0.862 1.692,0 v 5.821 c 0,0.081 0.02,0.178 0.044,0.276 0.227,0.032 0.482,0.06 0.717,0.06 0.94,0 1.619,-0.502 1.619,-1.485 0,-1.13 -0.813,-1.815 -1.919,-1.713 L 2.073,2.74 4.752,-1.437 c 0.365,0.036 0.725,0.056 1.081,0.056 0.385,0 0.778,-0.02 1.162,-0.056 v 0.498 c -0.299,0.041 -0.656,0.291 -0.838,0.543 l -2.17,3.283 c 0.996,0.359 1.785,1.064 1.785,2.189 0,0.49 -0.06,0.757 -0.404,1.117 C 4.74,6.838 3.785,6.801 2.947,6.801 2.097,6.765 1.474,6.744 0.972,6.744 0.47,6.744 -0.166,6.765 -1.021,6.801 V 6.299 C -0.057,6.327 -0.012,6.227 0,5.363 V 0"
     style="fill:#ffffff;fill-rule:nonzero;stroke:none"
     transform="matrix(0.17459001,0,0,-0.17459001,8.3757891,28.63646)"
     clip-path="url(#clipPath16)" />
  <path
     id="path17"
     d="m 0,0 h 1.688 c 0.66,-0.008 0.539,-0.085 0.627,-0.68 0.02,-0.17 0.02,-0.336 0.02,-0.506 H 2.801 C 2.862,-0.465 2.923,0.264 2.955,0.802 1.319,0.766 0.133,0.745 -0.814,0.745 c -0.947,0 -2.158,0.021 -3.748,0.057 -0.013,-0.631 0.056,-1.401 0.032,-1.988 h 0.481 c 0.025,0.304 0.037,0.599 0.057,0.802 0.146,0.267 0.255,0.348 0.543,0.384 h 1.757 v -5.999 c -0.013,-0.862 -0.057,-0.96 -1.013,-0.939 v -0.499 c 0.786,0.037 1.401,0.057 1.863,0.057 0.469,0 1.072,-0.02 1.858,-0.057 v 0.515 C 0.048,-6.959 0,-6.861 0,-5.999 V 0"
     style="fill:#ffffff;fill-rule:nonzero;stroke:none"
     transform="matrix(0.17459001,0,0,-0.17459001,10.527313,27.589094)"
     clip-path="url(#clipPath18)" />
  <path
     id="path19"
     d="m 0,0 c 0,-0.684 -0.032,-1.364 -0.178,-2.036 0.765,-0.405 1.639,-0.587 2.502,-0.587 0.396,0 1.23,0.085 1.607,0.227 1.279,0.494 1.907,1.465 1.907,2.66 0,1.149 -0.806,1.89 -2.15,2.145 L 2.72,2.587 c -0.769,0.134 -1.4,0.324 -1.4,1.259 0,0.801 0.721,1.401 1.708,1.401 0.567,0 1.239,-0.203 1.599,-0.66 L 4.651,3.632 H 5.19 c 0.032,0.57 0.044,1.161 0.166,1.712 L 5.307,5.489 C 4.538,5.798 3.81,5.906 3.069,5.906 1.332,5.906 -0.097,5.174 -0.097,3.259 -0.097,2.23 0.611,1.368 2.041,1.113 L 3.214,0.911 c 0.81,-0.145 1.114,-0.741 1.114,-1.259 0,-1.089 -0.867,-1.631 -1.883,-1.631 -0.623,0 -1.558,0.376 -1.927,0.926 L 0.482,0 H 0"
     style="fill:#ffffff;fill-rule:nonzero;stroke:none"
     transform="matrix(0.17459001,0,0,-0.17459001,11.390956,28.454884)"
     clip-path="url(#clipPath20)" />
  <path
     id="path21"
     d="m 0,0 c -0.911,-0.615 -2.109,-0.874 -3.061,-0.874 -3.481,0 -5.181,2.417 -5.181,5.363 0,2.236 1.344,4.632 4.368,4.632 1.445,0 2.66,-0.534 3.048,-1.004 0.049,-0.405 0.093,-0.814 0.093,-1.215 L -0.68,6.854 h 0.518 l 0.049,0.048 c -0.016,0.401 0.076,1.6 0.307,2.28 L 0.097,9.299 c -0.696,0.239 -2.417,0.596 -3.761,0.596 -4.044,0 -6.489,-2.345 -6.489,-5.972 0,-3.825 3.06,-5.769 6.251,-5.769 1.473,0 2.688,0.308 3.74,0.81 0.109,0.311 0.227,0.615 0.356,0.923 L 0,0"
     style="fill:#ffffff;fill-rule:nonzero;stroke:none"
     transform="matrix(0.17459001,0,0,-0.17459001,15.272688,28.606114)"
     clip-path="url(#clipPath22)" />
  <path
     id="path23"
     d="m 0,0 c 2.769,0 4.575,1.664 4.575,4.481 0,2.68 -1.761,4.048 -4.336,4.048 -2.745,0 -4.55,-1.509 -4.55,-4.335 C -4.311,1.461 -2.684,0 0,0 M 0.118,7.857 C 1.077,7.857 1.737,7.534 2.227,6.684 2.66,5.919 2.781,5.008 2.781,4.133 2.781,2.445 2.19,0.672 0.203,0.672 c -0.948,0 -1.628,0.319 -2.106,1.149 -0.445,0.758 -0.611,1.701 -0.611,2.575 0,1.798 0.526,3.461 2.632,3.461"
     style="fill:#ffffff;fill-rule:evenodd;stroke:none"
     transform="matrix(0.17459001,0,0,-0.17459001,16.327228,28.912834)"
     clip-path="url(#clipPath24)" />
  <path
     id="path25"
     d="m 0,0 c -0.012,-0.862 -0.061,-0.96 -1.021,-0.939 v -0.498 c 0.794,0.036 1.401,0.056 1.871,0.056 0.469,0 1.065,-0.02 1.858,-0.056 v 0.514 C 1.736,-0.96 1.688,-0.862 1.688,0 v 5.363 c 0,0.864 0.048,0.964 1.02,0.924 V 6.801 C 2.109,6.765 1.68,6.744 1.319,6.744 0.972,6.744 0.526,6.765 -0.061,6.801 -0.385,6.048 -1.437,3.821 -2.312,1.951 -2.478,1.591 -2.648,1.242 -2.838,0.895 L -4.729,4.85 c -0.279,0.526 -0.684,1.437 -0.898,1.951 -0.591,-0.036 -1.02,-0.057 -1.381,-0.057 -0.344,0 -0.789,0.021 -1.498,0.057 V 6.287 c 0.968,0.04 1.021,-0.06 1.021,-0.924 V 0 c 0,-0.862 -0.053,-0.96 -1.021,-0.923 v -0.514 c 0.587,0.036 1.045,0.056 1.389,0.056 0.348,0 0.793,-0.02 1.356,-0.056 v 0.514 C -6.732,-0.96 -6.781,-0.862 -6.781,0 v 5.186 l 2.757,-5.692 c 0.158,-0.336 0.405,-0.883 0.429,-0.992 h 0.408 l 0.13,0.275 1.765,3.786 L 0,5.174 V 0"
     style="fill:#ffffff;fill-rule:nonzero;stroke:none"
     transform="matrix(0.17459001,0,0,-0.17459001,18.936773,28.63646)"
     clip-path="url(#clipPath26)" />
  <path
     id="path27"
     d="m 0,0 c -0.016,-0.862 -0.061,-0.96 -1.016,-0.939 v -0.498 c 0.785,0.036 1.4,0.056 1.862,0.056 0.47,0 1.073,-0.02 1.858,-0.056 v 0.514 C 1.733,-0.96 1.688,-0.862 1.688,0 v 5.761 c 0,0.085 -0.012,0.262 0.061,0.311 0.178,0.121 0.502,0.11 0.709,0.11 0.392,0 0.85,-0.134 1.108,-0.446 C 3.858,5.4 3.903,4.918 3.903,4.502 3.903,4.153 3.858,3.821 3.656,3.53 3.425,3.206 3.052,2.991 2.66,2.991 2.49,2.991 2.324,3.044 2.154,3.064 L 2.032,2.947 C 2.097,2.85 2.214,2.599 2.239,2.525 2.445,2.502 2.647,2.441 2.862,2.441 c 1.534,0 2.765,0.971 2.765,2.567 0,0.558 -0.178,1.004 -0.607,1.364 C 4.506,6.744 3.915,6.744 3.332,6.744 H -1.016 V 6.287 C -0.048,6.327 0,6.227 0,5.363 V 0"
     style="fill:#ffffff;fill-rule:nonzero;stroke:none"
     transform="matrix(0.17459001,0,0,-0.17459001,19.882439,28.63646)"
     clip-path="url(#clipPath28)" />
  <path
     id="path29"
     d="M 0,0 0.636,-1.615 C 0.789,-2.028 0.061,-1.976 -0.263,-2.049 v -0.477 c 0.793,0.036 1.388,0.056 1.858,0.056 0.466,0 1.052,-0.02 1.858,-0.056 v 0.514 H 3.308 c -0.495,0.061 -0.604,0.048 -0.806,0.514 l -3.101,7.247 h -0.85 l -0.183,-0.49 -0.202,-0.49 -0.312,-0.831 -1.89,-4.646 c -0.17,-0.394 -0.3,-0.839 -0.611,-1.162 -0.203,-0.117 -0.446,-0.142 -0.685,-0.142 v -0.514 c 0.575,0.036 1.008,0.056 1.356,0.056 0.349,0 0.778,-0.02 1.357,-0.056 v 0.477 c -0.243,0.073 -1.045,0.085 -0.927,0.434 L -3.008,0 Z m -1.522,3.712 1.247,-3.04 h -2.446 l 1.199,3.04"
     style="fill:#ffffff;fill-rule:evenodd;stroke:none"
     transform="matrix(0.17459001,0,0,-0.17459001,21.910266,28.446365)"
     clip-path="url(#clipPath30)" />
  <path
     id="path31"
     d="m 0,0 c 0,-0.862 -0.048,-0.96 -1.02,-0.923 v -0.514 c 0.566,0.036 1.02,0.056 1.368,0.056 0.357,0 0.802,-0.02 1.377,-0.056 v 0.514 C 0.757,-0.96 0.705,-0.862 0.705,0 v 4.918 l 5.372,-6.331 0.991,-0.158 0.061,0.061 v 0.299 l -0.024,0.899 v 5.675 c 0,0.864 0.048,0.964 1.016,0.924 V 6.801 C 7.526,6.765 7.077,6.744 6.72,6.744 6.372,6.744 5.918,6.765 5.38,6.801 V 6.287 C 6.348,6.327 6.396,6.227 6.396,5.363 V 0.826 L 6.121,1.121 4.218,3.315 1.429,6.776 C 0.899,6.765 0.502,6.744 0.178,6.744 c -0.307,0 -0.717,0.021 -1.198,0.057 V 6.287 C -0.048,6.327 0,6.227 0,5.363 V 0"
     style="fill:#ffffff;fill-rule:nonzero;stroke:none"
     transform="matrix(0.17459001,0,0,-0.17459001,22.986701,28.63646)"
     clip-path="url(#clipPath32)" />
  <path
     id="path33"
     d="M 0,0 C -0.349,0.632 -0.713,1.255 -1.369,1.627 L -3.271,1.198 V 0.753 c 0.307,0 0.656,-0.098 0.931,-0.397 0.202,-0.226 0.445,-0.55 0.623,-0.801 l 1.211,-1.951 c 0.141,-0.268 0.295,-0.506 0.417,-0.782 0.061,-0.13 0.109,-0.381 0.109,-0.632 v -1.509 c -0.012,-0.863 -0.061,-0.96 -1.016,-0.94 v -0.498 c 0.785,0.036 1.4,0.057 1.87,0.057 0.462,0 1.065,-0.021 1.85,-0.057 v 0.515 c -0.967,-0.037 -1.016,0.06 -1.016,0.923 v 1.7 c 0,0.19 0,0.404 0.073,0.562 l 0.372,0.766 0.539,0.862 1.267,1.943 0.494,0.684 V 1.425 H 3.53 C 3.061,0.441 2.227,-0.874 1.279,-2.433 L 0,0"
     style="fill:#ffffff;fill-rule:nonzero;stroke:none"
     transform="matrix(0.17459001,0,0,-0.17459001,25.193379,27.707763)"
     clip-path="url(#clipPath34)" />
  <path
     id="path35"
     d="m 0,0 -0.048,-0.049 c 0,-0.713 -0.065,-1.587 -0.179,-2.311 l 0.049,-0.102 c 0.632,-0.34 1.814,-0.68 3.012,-0.68 3.546,0 4.923,2.235 4.923,3.999 0,1.685 -1.053,2.365 -2.931,2.644 -2.656,0.401 -3.433,0.664 -3.433,2.122 0,1.149 0.793,2.133 2.542,2.133 1.231,0 2.024,-0.518 2.283,-0.806 C 6.315,6.837 6.315,6.659 6.315,5.684 L 6.364,5.635 6.882,5.591 6.931,5.635 c 0,0.458 0.113,1.619 0.275,2.19 L 7.158,7.935 C 6.364,8.376 5.004,8.599 4.097,8.599 c -2.721,0 -4.324,-1.393 -4.324,-3.612 0,-4.417 6.364,-1.554 6.364,-4.809 0,-1.534 -1.068,-2.478 -2.914,-2.478 -1.814,0 -2.575,0.923 -2.608,1.166 -0.048,0.295 -0.048,0.49 -0.048,1.085 L 0.518,0 H 0"
     style="fill:#ffffff;fill-rule:nonzero;stroke:none"
     clip-path="url(#clipPath36)"
     transform="matrix(0.17459001,0,0,-0.17459001,27.023922,28.379864)" />
  <path
     id="path37"
     d="m 0,0 c 2.769,0 4.579,1.664 4.579,4.481 0,2.68 -1.762,4.048 -4.336,4.048 -2.745,0 -4.555,-1.509 -4.555,-4.335 C -4.312,1.461 -2.68,0 0,0 M 0.122,7.857 C 1.081,7.857 1.737,7.534 2.227,6.684 2.66,5.919 2.781,5.008 2.781,4.133 2.781,2.445 2.194,0.672 0.207,0.672 c -0.948,0 -1.632,0.319 -2.114,1.149 -0.437,0.758 -0.607,1.701 -0.607,2.575 0,1.798 0.526,3.461 2.636,3.461"
     style="fill:#ffffff;fill-rule:evenodd;stroke:none"
     transform="matrix(0.17459001,0,0,-0.17459001,29.318924,28.912834)"
     clip-path="url(#clipPath38)" />
  <path
     id="path39"
     d="M 0,0 C 0,0.863 0.052,0.964 1.02,0.924 V 1.437 C 0.23,1.401 -0.373,1.381 -0.834,1.381 c -0.47,0 -1.081,0.02 -1.871,0.056 V 0.936 C -1.749,0.964 -1.696,0.863 -1.685,0 v -4.623 c 0,-1.356 1.159,-2.323 3.425,-2.323 0.911,0 1.725,0.157 2.442,0.764 0.756,0.636 0.886,1.511 0.886,2.446 V 0 c 0.013,0.863 0.061,0.964 1.02,0.936 V 1.437 C 5.417,1.401 4.983,1.381 4.635,1.381 4.287,1.381 3.858,1.401 3.344,1.437 V 0.936 C 4.299,0.964 4.352,0.863 4.364,0 v -3.125 c 0,-0.623 0,-1.453 -0.3,-1.991 -0.372,-0.656 -1.21,-0.851 -1.931,-0.851 -0.648,0 -1.401,0.158 -1.809,0.713 C -0.069,-4.716 0,-3.842 0,-3.21 V 0"
     style="fill:#ffffff;fill-rule:nonzero;stroke:none"
     transform="matrix(0.17459001,0,0,-0.17459001,30.857654,27.700098)"
     clip-path="url(#clipPath40)" />
  <path
     id="path41"
     d="m 0,0 h 1.688 c 0.66,-0.008 0.539,-0.085 0.624,-0.68 0.024,-0.17 0.024,-0.336 0.024,-0.506 h 0.469 c 0.057,0.721 0.118,1.45 0.154,1.988 -1.64,-0.036 -2.826,-0.057 -3.773,-0.057 -0.947,0 -2.158,0.021 -3.748,0.057 -0.013,-0.631 0.056,-1.401 0.032,-1.988 h 0.481 c 0.025,0.304 0.037,0.599 0.061,0.802 0.142,0.267 0.251,0.348 0.539,0.384 h 1.757 v -5.999 c -0.013,-0.862 -0.057,-0.96 -1.016,-0.939 v -0.499 c 0.789,0.037 1.404,0.057 1.866,0.057 0.469,0 1.072,-0.02 1.858,-0.057 v 0.515 C 0.044,-6.959 0,-6.861 0,-5.999 V 0"
     style="fill:#ffffff;fill-rule:nonzero;stroke:none"
     transform="matrix(0.17459001,0,0,-0.17459001,32.932117,27.589094)"
     clip-path="url(#clipPath42)" />
  <path
     id="path43"
     d="M 0,0 C 0.793,0.036 1.405,0.057 1.87,0.057 2.34,0.057 2.935,0.036 3.729,0 V 0.515 C 2.757,0.478 2.708,0.575 2.708,1.437 v 5.364 c 0,0.863 0.049,0.964 1.021,0.924 V 8.238 C 2.935,8.202 2.34,8.182 1.87,8.182 1.405,8.182 0.793,8.202 0,8.238 V 7.736 C 0.963,7.765 1.008,7.664 1.02,6.801 V 4.753 C 0.182,4.74 -0.429,4.721 -0.919,4.721 c -0.494,0 -1.113,0.019 -1.939,0.032 v 2.048 c 0,0.863 0.045,0.964 1.016,0.924 V 8.238 C -2.632,8.202 -3.23,8.182 -3.7,8.182 c -0.466,0 -1.077,0.02 -1.866,0.056 V 7.736 C -4.607,7.765 -4.562,7.664 -4.55,6.801 V 1.437 C -4.562,0.575 -4.607,0.478 -5.566,0.498 V 0 c 0.789,0.036 1.4,0.057 1.866,0.057 0.47,0 1.068,-0.021 1.858,-0.057 V 0.515 C -2.813,0.478 -2.858,0.575 -2.858,1.437 V 4 c 0.826,0.012 1.445,0.036 1.939,0.036 0.49,0 1.101,-0.024 1.939,-0.036 V 1.437 C 1.008,0.575 0.963,0.478 0,0.498 V 0"
     style="fill:#ffffff;fill-rule:nonzero;stroke:none"
     transform="matrix(0.17459001,0,0,-0.17459001,34.686363,28.887431)"
     clip-path="url(#clipPath44)" />
  <path
     id="path45"
     d="M 0,0 0.858,-2.182 C 1.069,-2.736 0.081,-2.668 -0.356,-2.77 v -0.647 c 1.068,0.053 1.878,0.081 2.51,0.081 0.631,0 1.425,-0.028 2.51,-0.081 v 0.696 H 4.469 C 3.805,-2.64 3.66,-2.655 3.384,-2.02 L -0.814,7.772 H -1.959 L -2.203,7.109 -2.478,6.449 -2.899,5.328 -5.461,-0.951 C -5.684,-1.485 -5.862,-2.089 -6.283,-2.522 -6.559,-2.684 -6.886,-2.721 -7.21,-2.721 v -0.696 c 0.781,0.053 1.364,0.081 1.834,0.081 0.469,0 1.052,-0.028 1.83,-0.081 v 0.647 c -0.325,0.102 -1.413,0.115 -1.251,0.588 L -4.065,0 Z m -2.057,5.02 1.684,-4.113 h -3.303 l 1.619,4.113"
     style="fill:#ffffff;fill-rule:evenodd;stroke:none"
     transform="matrix(0.17459001,0,0,-0.17459001,37.569402,28.295135)"
     clip-path="url(#clipPath46)" />
  <path
     id="path47"
     d="m 0,0 0.814,0.041 c 0.599,0.023 1.259,0.036 1.822,-0.195 l 0.06,-0.048 c 0.057,-0.312 0.057,-0.632 0.081,-0.956 h 0.466 c 0.052,0.684 0.121,1.304 0.17,1.749 L 3.364,0.672 C 2.348,0.647 1.34,0.615 0.32,0.615 c -1.016,0 -2.02,0.032 -3.04,0.057 V 0.219 c 0.959,-0.085 1.004,-0.178 1.032,-0.923 v -5.425 c -0.012,-0.862 -0.061,-0.96 -1.02,-0.939 v -0.498 c 0.789,0.036 1.4,0.056 1.87,0.056 0.466,0 1.065,-0.02 2.061,-0.056 v 0.514 C 0.049,-7.089 0,-6.991 0,-6.129 v 2.514 h 1.376 c 0.219,0 0.668,-0.012 0.733,-0.3 0.069,-0.251 0.057,-0.514 0.057,-0.781 H 2.66 v 2.554 H 2.178 V -2.453 C 2.166,-2.636 2.19,-2.789 2.024,-2.906 1.81,-3.028 1.53,-3.016 1.292,-3.016 H 0 V 0"
     style="fill:#ffffff;fill-rule:nonzero;stroke:none"
     transform="matrix(0.17459001,0,0,-0.17459001,39.001339,27.566413)"
     clip-path="url(#clipPath48)" />
  <path
     id="path49"
     d="m 0,0 c -0.016,-0.862 -0.065,-0.96 -1.02,-0.939 v -0.498 c 0.789,0.036 1.4,0.056 1.87,0.056 0.462,0 1.065,-0.02 1.854,-0.056 v 0.514 C 1.737,-0.96 1.684,-0.862 1.684,0 v 5.821 c 0,0.081 0.024,0.178 0.053,0.276 0.222,0.032 0.473,0.06 0.716,0.06 0.931,0 1.615,-0.502 1.615,-1.485 0,-1.13 -0.813,-1.815 -1.914,-1.713 L 2.069,2.74 4.752,-1.437 c 0.357,0.036 0.717,0.056 1.078,0.056 0.384,0 0.781,-0.02 1.161,-0.056 v 0.498 C 6.692,-0.898 6.332,-0.648 6.153,-0.396 L 3.987,2.887 c 0.992,0.359 1.782,1.064 1.782,2.189 0,0.49 -0.057,0.757 -0.405,1.117 C 4.741,6.838 3.781,6.801 2.943,6.801 2.093,6.765 1.469,6.744 0.967,6.744 0.461,6.744 -0.17,6.765 -1.02,6.801 V 6.299 C -0.065,6.327 -0.016,6.227 0,5.363 V 0"
     style="fill:#ffffff;fill-rule:nonzero;stroke:none"
     transform="matrix(0.17459001,0,0,-0.17459001,40.06157,28.63646)"
     clip-path="url(#clipPath50)" />
  <path
     id="path51"
     d="m 0,0 c -0.012,-0.862 -0.057,-0.96 -1.016,-0.939 v -0.498 c 0.789,0.036 1.401,0.056 1.867,0.056 0.469,0 1.064,-0.02 1.857,-0.056 v 0.514 C 1.737,-0.96 1.688,-0.862 1.688,0 v 5.363 c 0,0.864 0.049,0.964 1.02,0.924 V 6.801 C 1.915,6.765 1.32,6.744 0.851,6.744 c -0.466,0 -1.078,0.021 -1.867,0.057 V 6.299 C -0.057,6.327 -0.012,6.227 0,5.363 V 0"
     style="fill:#ffffff;fill-rule:nonzero;stroke:none"
     transform="matrix(0.17459001,0,0,-0.17459001,41.741579,28.63646)"
     clip-path="url(#clipPath52)" />
  <path
     id="path53"
     d="m 0,0 -0.138,0.146 c -0.615,-0.361 -1.587,-0.616 -2.291,-0.616 -1.056,0 -1.842,0.255 -2.574,1.044 -0.697,0.758 -0.948,1.725 -0.948,2.729 0,0.805 0.179,1.692 0.709,2.3 0.587,0.684 1.437,1.007 2.323,1.007 0.814,0 1.571,-0.214 2.142,-0.825 0.048,-0.348 0.061,-0.684 0.073,-1.033 h 0.47 c 0.02,0.531 0.117,1.466 0.19,1.847 0.036,0.177 -0.094,0.202 -0.19,0.243 -0.96,0.307 -1.749,0.44 -2.733,0.44 -2.554,0 -4.789,-1.38 -4.789,-4.133 0,-1.235 0.404,-2.432 1.336,-3.271 0.927,-0.838 2.182,-1.125 3.404,-1.125 0.959,0 1.927,0.157 2.757,0.66 L 0,0"
     style="fill:#ffffff;fill-rule:nonzero;stroke:none"
     transform="matrix(0.17459001,0,0,-0.17459001,43.917809,28.695122)"
     clip-path="url(#clipPath54)" />
  <path
     id="path55"
     d="M 0,0 0.631,-1.615 C 0.785,-2.028 0.057,-1.976 -0.268,-2.049 v -0.477 c 0.794,0.036 1.389,0.056 1.859,0.056 0.466,0 1.053,-0.02 1.858,-0.056 v 0.514 H 3.303 c -0.49,0.061 -0.599,0.048 -0.801,0.514 l -3.106,7.247 h -0.85 L -1.632,5.259 -1.834,4.769 -2.15,3.938 -4.041,-0.708 C -4.21,-1.102 -4.34,-1.547 -4.656,-1.87 -4.858,-1.987 -5.093,-2.012 -5.332,-2.012 v -0.514 c 0.575,0.036 1.008,0.056 1.348,0.056 0.348,0 0.782,-0.02 1.357,-0.056 v 0.477 c -0.239,0.073 -1.041,0.085 -0.924,0.434 L -3.012,0 Z m -1.522,3.712 1.243,-3.04 h -2.442 l 1.199,3.04"
     style="fill:#ffffff;fill-rule:evenodd;stroke:none"
     transform="matrix(0.17459001,0,0,-0.17459001,45.033211,28.446365)"
     clip-path="url(#clipPath56)" />
  <path
     id="path57"
     d="m 0,0 c 0,-0.712 -0.162,-1.036 -0.907,-1.198 v -0.47 c 1.701,0.053 2.98,0.081 4,0.081 1.004,0 2.267,-0.028 4.081,-0.081 L 7.34,1.264 H 6.704 C 6.595,0.551 6.498,-0.162 6.38,-0.453 5.963,-0.611 4.911,-0.647 2.287,-0.647 v 8.181 c 0,1.162 0.062,1.291 1.377,1.247 V 9.478 C 2.591,9.429 1.785,9.393 1.149,9.393 c -0.63,0 -1.453,0.036 -2.525,0.085 V 8.797 C -0.081,8.825 -0.017,8.696 0,7.534 V 0"
     style="fill:#ffffff;fill-rule:nonzero;stroke:none"
     transform="matrix(0.17459001,0,0,-0.17459001,46.807919,28.600494)"
     clip-path="url(#clipPath58)" />
  <path
     id="path59"
     d="m 0,0 c -0.013,-0.862 -0.061,-0.96 -1.017,-0.939 v -0.498 c 0.786,0.036 1.402,0.056 1.867,0.056 0.465,0 1.069,-0.02 1.854,-0.056 v 0.514 C 1.736,-0.96 1.688,-0.862 1.688,0 v 5.363 c 0,0.864 0.048,0.964 1.016,0.924 V 6.801 C 1.919,6.765 1.315,6.744 0.85,6.744 c -0.465,0 -1.081,0.021 -1.867,0.057 V 6.299 C -0.061,6.327 -0.013,6.227 0,5.363 V 0"
     style="fill:#ffffff;fill-rule:nonzero;stroke:none"
     transform="matrix(0.17459001,0,0,-0.17459001,48.477437,28.63646)"
     clip-path="url(#clipPath60)" />
  <path
     id="path61"
     d="m 0,0 c -0.013,-0.862 -0.062,-0.96 -1.021,-0.939 v -0.498 c 0.793,0.036 1.401,0.056 1.871,0.056 0.465,0 1.065,-0.02 1.858,-0.056 v 0.514 C 1.736,-0.96 1.687,-0.862 1.687,0 v 5.363 c 0,0.864 0.049,0.964 1.021,0.924 V 6.801 C 2.104,6.765 1.676,6.744 1.315,6.744 0.972,6.744 0.526,6.765 -0.062,6.801 -0.385,6.048 -1.437,3.821 -2.312,1.951 -2.481,1.591 -2.647,1.242 -2.838,0.895 L -4.732,4.85 c -0.276,0.526 -0.685,1.437 -0.9,1.951 -0.587,-0.036 -1.015,-0.057 -1.376,-0.057 -0.348,0 -0.794,0.021 -1.498,0.057 V 6.287 c 0.972,0.04 1.017,-0.06 1.017,-0.924 V 0 c 0,-0.862 -0.045,-0.96 -1.017,-0.923 v -0.514 c 0.583,0.036 1.04,0.056 1.389,0.056 0.347,0 0.789,-0.02 1.356,-0.056 v 0.514 C -6.732,-0.96 -6.781,-0.862 -6.781,0 v 5.186 l 2.757,-5.692 c 0.154,-0.336 0.405,-0.883 0.429,-0.992 h 0.408 l 0.13,0.275 L -1.3,2.563 0,5.174 V 0"
     style="fill:#ffffff;fill-rule:nonzero;stroke:none"
     transform="matrix(0.17459001,0,0,-0.17459001,50.750528,28.63646)"
     clip-path="url(#clipPath62)" />
  <path
     id="path63"
     d="m 0,0 c -0.013,-0.862 -0.062,-0.96 -1.021,-0.939 v -0.498 c 0.793,0.036 1.401,0.056 1.871,0.056 0.469,0 1.064,-0.02 1.858,-0.056 v 0.514 C 1.736,-0.96 1.687,-0.862 1.687,0 v 5.363 c 0,0.864 0.049,0.964 1.021,0.924 V 6.801 C 1.914,6.765 1.319,6.744 0.85,6.744 c -0.47,0 -1.078,0.021 -1.871,0.057 V 6.299 C -0.062,6.327 -0.013,6.227 0,5.363 V 0"
     style="fill:#ffffff;fill-rule:nonzero;stroke:none"
     transform="matrix(0.17459001,0,0,-0.17459001,51.716744,28.63646)"
     clip-path="url(#clipPath64)" />
  <path
     id="path65"
     d="m 0,0 h 1.692 c 0.66,-0.008 0.538,-0.085 0.62,-0.68 0.024,-0.17 0.024,-0.336 0.024,-0.506 h 0.465 c 0.065,0.721 0.122,1.45 0.158,1.988 -1.64,-0.036 -2.825,-0.057 -3.772,-0.057 -0.949,0 -2.155,0.021 -3.749,0.057 -0.017,-0.631 0.06,-1.401 0.036,-1.988 h 0.477 c 0.025,0.304 0.037,0.599 0.061,0.802 0.146,0.267 0.252,0.348 0.539,0.384 h 1.761 V -5.999 C -1.7,-6.861 -1.749,-6.959 -2.709,-6.938 v -0.499 c 0.794,0.037 1.401,0.057 1.871,0.057 0.47,0 1.065,-0.02 1.858,-0.057 v 0.515 C 0.049,-6.959 0,-6.861 0,-5.999 V 0"
     style="fill:#ffffff;fill-rule:nonzero;stroke:none"
     transform="matrix(0.17459001,0,0,-0.17459001,53.282241,27.589094)"
     clip-path="url(#clipPath66)" />
  <path
     id="path67"
     d="m 0,0 c 0,-0.53 -0.121,-0.769 -0.672,-0.886 v -0.348 c 1.259,0.036 2.206,0.056 2.959,0.056 0.741,0 1.677,-0.02 3.017,-0.056 L 5.425,0.822 H 4.955 C 4.875,0.405 4.806,-0.121 4.721,-0.336 4.405,-0.457 3.632,-0.481 1.685,-0.481 V 2.753 H 3.283 C 3.498,2.753 3.879,2.729 3.939,2.454 4.012,2.215 3.976,1.964 4,1.713 H 4.506 V 4.288 H 4.024 C 4.024,4.013 4,3.773 3.939,3.567 3.902,3.353 3.736,3.353 3.566,3.353 H 1.685 v 2.55 c 0,0.146 0.04,0.299 0.088,0.429 0.344,0 1.879,0.012 2.308,-0.024 C 4.348,6.287 4.619,6.239 4.636,6.049 4.66,5.781 4.685,5.51 4.685,5.243 H 5.138 L 5.259,6.562 5.304,7.004 C 4.251,6.979 3.198,6.947 2.142,6.947 c -1.065,0 -2.118,0.032 -3.17,0.057 V 6.551 C -0.072,6.466 -0.028,6.373 0,5.628 V 0"
     style="fill:#ffffff;fill-rule:nonzero;stroke:none"
     transform="matrix(0.17459001,0,0,-0.17459001,54.236359,28.671934)"
     clip-path="url(#clipPath68)" />
  <path
     id="path69"
     d="m 0,0 c 0,-0.275 -0.118,-0.514 -0.563,-0.631 v -0.292 h 3.571 c 1.546,0 3.08,0.409 4.06,1.68 0.623,0.802 0.923,1.724 0.923,2.745 0,1.077 -0.202,2.142 -1.065,2.87 C 6.064,7.093 5.035,7.259 3.942,7.259 2.886,7.259 2.108,7.202 1.485,7.202 0.866,7.202 0.072,7.223 -1.029,7.259 V 6.745 C -0.069,6.664 -0.024,6.562 0,5.821 Z m 1.687,6.53 c 0.414,0.025 0.794,0.069 1.167,0.069 0.875,0 1.809,-0.093 2.49,-0.716 C 6.023,5.251 6.21,4.146 6.21,3.271 6.21,2.349 5.955,1.243 5.331,0.551 4.635,-0.202 3.704,-0.295 2.732,-0.295 c -0.336,0 -0.684,0 -1.045,0.057 V 6.53"
     style="fill:#ffffff;fill-rule:evenodd;stroke:none"
     transform="matrix(0.17459001,0,0,-0.17459001,55.68048,28.716419)"
     clip-path="url(#clipPath70)" />
  <path
     id="path71"
     d="M 26.085,84.811 H 352.183 V 79.674 H 26.085 Z"
     style="fill:#ffffff;fill-opacity:1;fill-rule:nonzero;stroke:none"
     transform="matrix(0.17459001,0,0,-0.17459001,-4.3786587,39.069922)"
     clip-path="url(#clipPath72)" />
  <path
     id="path73"
     d="m 0,0 -0.971,-0.517 0.521,-1.297 c 0,0 -28.759,-20.618 -32.144,-23.598 -8.959,-7.886 -18.8,-3.655 -19.767,-3.072 1.062,0.819 10.62,6.102 21.204,11.874 l -24.516,-13.069 c 0,0 3.931,-3.044 12.315,-2.789 5.49,0.166 10.194,3.51 13.489,5.684 3.307,2.178 30.48,24.594 30.48,24.594 z"
     style="fill:#ffffff;fill-rule:nonzero;stroke:none"
     transform="matrix(0.17459001,0,0,-0.17459001,78.654235,9.9769956)"
     clip-path="url(#clipPath74)" />
  <path
     id="path75"
     d="m 0,0 -1.571,-1.197 0.482,-0.782 c 0,0 -20.52,-21.68 -21.132,-22.226 -4.866,-4.368 -11.862,-2.465 -11.862,-2.465 l 17.283,13.874 -20.465,-15.587 c 0,0 5.996,-1.927 11.28,-0.51 4.715,1.263 7.995,5.692 10.18,7.801 C -13.618,-18.979 -2.412,-4.53 0,-2.117 2.413,0.295 0,0 0,0"
     style="fill:#ffffff;fill-rule:nonzero;stroke:none"
     transform="matrix(0.17459001,0,0,-0.17459001,78.968638,10.255501)"
     clip-path="url(#clipPath76)" />
  <path
     id="path77"
     d="m 0,0 c -1.886,-1.534 -5.052,-2.87 -7.639,-3.364 2.737,2.372 18.74,21.606 18.74,21.606 L 11.74,17.683 C 11.74,17.683 5.332,5.639 0,0 M 12.036,19.63 -13.562,-5.834 c 0,0 7.948,0.834 9.918,1.587 3.397,1.291 5.284,2.98 6.676,5.089 1.098,1.664 9.789,17.193 9.789,17.193 z"
     style="fill:#ffffff;fill-rule:nonzero;stroke:none"
     transform="matrix(0.17459001,0,0,-0.17459001,76.937999,13.911747)"
     clip-path="url(#clipPath78)" />
  <path
     id="path79"
     d="m 0,0 c 4.048,-1.235 12.484,-3.373 15.343,-3.461 0.583,-0.02 2.449,-0.782 2.149,-1.603 -0.449,-1.235 -2.534,0.06 -4.219,-0.446 -1.121,-0.336 -6.63,3.498 -16.197,3.822 -8.266,0.283 -14.205,-5.162 -19.011,-5.174 -1.417,-0.004 -3.938,0.469 -3.655,1.291 0.506,1.466 1.38,0.203 3.206,0.171 2.753,0.17 4.725,0.841 4.652,2.242 -0.04,0.899 -0.907,0.292 -0.797,1.377 C -18.165,1.911 -3.166,0.967 0,0 m 9.42,-12.093 c -4.74,0.648 -5.081,-4.481 -6.785,-6.331 -5.708,-6.181 -12.052,-9.206 -15.073,-16.027 -0.335,-0.753 -2.083,-3.417 -2.772,-3.988 -0.685,-0.575 -1.264,0.786 -1.717,1.028 -2.615,1.417 -3.995,-13.773 -6.874,-12.946 -0.453,0.133 1.178,4.63 2.259,8.74 0.834,3.158 1.117,6.219 1.466,6.465 1.181,0.842 3.097,-1.465 6.129,1.012 1.854,1.519 9.785,21.145 22.61,24.913 1.291,0.341 1.263,-2.934 0.757,-2.866 M -27.979,2.781 c -2.214,0.98 -1.967,0.494 -2.583,0.737 -0.615,0.243 0.244,1.72 0.738,2.34 0.493,0.611 1.23,1.474 1.724,2.582 0.49,1.106 -1.218,-2.582 0.365,-2.983 0.858,-0.219 1.23,-2.064 1.355,-2.676 0.126,-0.615 0.616,-0.984 -1.599,0 m -12.732,-23.739 c -0.684,-0.806 -5.157,-2.749 -6.189,-3.207 -1.029,-0.461 -5.037,-3.554 -5.037,-3.554 0,0 -2.077,-0.458 -1.42,0.276 3.57,4.007 7.921,5.954 10.21,8.335 2.311,3.339 5.396,6.939 4.711,8.481 0.474,0.214 0.774,0.255 0.774,0.255 0,0 1.968,-4.109 5.185,-6.166 -3.258,0.255 -5.4,-1.072 -8.234,-4.42 M -59.43,-32.715 c -3.449,-0.664 -12.336,-4.7 -14.777,-7.1 -3.25,-3.195 -12.484,-8.716 -15.011,-9.963 -1.566,-0.778 -2.777,-1.931 -3.664,-2.64 -1.676,-1.348 -0.829,-3.494 -4.578,-6.186 -2.842,-2.032 -6.393,-10.404 -7.566,-9.7 -1.482,0.887 2.756,4.895 5.477,10.663 0.498,1.057 2.316,1.672 2.433,3.393 0.109,1.717 -0.729,4.595 0.915,5.04 1.522,0.409 4.388,-0.55 7.21,1.834 7.1,6.024 13.591,14.267 18.399,16.031 2.203,0.81 7.287,2.328 9.102,2.871 1.764,0.527 3.553,2.405 3.206,1.829 -0.689,-0.962 -1.866,-2.011 2.27,-3.222 0.838,-0.246 0.713,-2.056 -3.416,-2.85 m 41.548,90.93 c -1.555,-0.012 -3.724,-0.992 -4.522,0.486 -0.397,0.74 0.866,1.518 0.894,2.753 0.215,1.465 7.077,1.502 9.538,-1.923 0.207,-0.288 -0.279,0 -0.692,-0.381 -0.21,-0.19 0.105,-2.753 1.094,-2.445 0.279,0.085 -0.527,2.554 0.064,2.227 1.725,-0.96 4.065,-1.179 4.044,-1.855 -0.012,-0.376 -1.012,-0.66 -0.951,-0.995 0.109,-0.567 2.158,-1.409 1.02,-2.531 1.114,0.19 1.199,-0.814 1.393,-1.17 0.36,-0.659 1.413,-0.834 1.308,-1.061 -0.454,-0.975 -3.899,0.126 -3.21,1.612 -0.511,-0.069 -1.166,-1.004 -1.928,-0.83 -2.194,0.498 -4.842,6.149 -8.052,6.113 m 68.51,24.873 C 50.304,83.569 41.454,80.554 39.653,78.408 38.908,77.513 35.678,72.749 34.544,71.837 33.933,71.34 17.071,60.381 15.12,58.15 14.181,57.082 13.177,55.818 12.416,55.163 11.343,54.244 7.437,53.025 6.012,51.604 5.104,50.701 1.574,47.807 0.898,47.248 c -0.68,-0.555 -2.502,-1.19 -3.543,-2.291 -1.166,-1.231 -1.372,-2.353 -2.995,-2.749 -0.506,-0.126 -2.688,0.064 -3.19,0.283 -0.502,0.211 -1.146,0.534 -1.036,1.247 0.105,0.717 0.428,1.595 0.964,2.632 0.534,1.036 0.712,0.68 1.072,0.963 0.356,0.283 3.736,2.485 3.736,3.559 0,1.072 -1.136,1.206 -1.498,1.493 -0.355,0.288 -0.178,0.709 -0.465,1.138 -0.287,0.429 -0.68,0.393 -0.68,0.393 0,0 0.146,0.501 0.073,0.643 -0.073,0.142 -1.093,1.093 -1.061,1.486 0.037,0.393 1.397,1.32 0.466,1.562 -3.065,0.81 -4.081,1.749 -6.053,3.446 -2.003,1.72 -4.772,1.615 -6.217,1.615 -0.851,0 -7.442,-1.619 -7.442,-8.777 0,-7.165 7.121,-9.619 7.121,-9.619 0,0 -3.724,-2.117 -5.671,-2.522 -1.948,-0.4 -3.15,0.632 -5.672,0.17 -2.518,-0.453 -6.469,-4.753 -8.016,-6.011 -1.546,-1.263 -3.838,-2.061 -6.359,-3.551 -2.523,-1.494 -5.211,-5.097 -6.244,-5.785 -1.028,-0.688 -1.258,0.057 -3.606,-0.745 -2.349,-0.802 -23.772,-13.861 -26.809,-15.464 -3.036,-1.608 -7.044,-2.065 -11.286,-4.012 -2.139,-0.984 -4.045,-2.523 -5.379,-3.864 2.357,1.057 4.615,2.223 5.876,3.196 1.166,0.899 2.021,0.089 3.438,1.044 2.194,1.466 8.474,3.421 9.145,3.765 1.134,0.591 18.862,11.153 19.513,11.554 6.465,3.923 7.777,3.562 11.182,4.437 1.113,0.291 2.793,2.781 3.137,3.352 1.583,2.611 5.384,4.623 8.364,6.417 0.85,0.51 3.76,3.655 5.959,4.582 2.341,0.988 4.915,-0.125 6.211,0.025 2.23,0.259 4.424,2.744 5.561,2.449 1.972,-0.502 -2.234,-2.631 1.9,-3.984 2.379,-0.777 2.251,0.47 2.671,0.328 -0.328,-4.647 12.473,-1.356 7.705,2.134 0.785,-0.049 3.128,-0.522 4.363,0.793 0.806,-1.17 2.754,-2.449 1.207,1.207 -0.377,0.894 1.295,1.202 3.355,2.234 2.066,1.033 2.62,2.356 3.421,3.154 0.802,0.805 3.478,2.721 4.734,3.291 1.258,0.575 2.748,0.972 3.319,1.199 0.575,0.231 2.166,2.088 3.166,3.153 3.396,3.595 18.662,13.432 19.974,15.238 0.583,0.794 4.7,6.319 6.194,7.215 0.968,0.578 8.223,3.708 8.323,3.25 0.279,-1.182 -3.219,-2.194 -3.934,-2.498 -5.616,-2.392 -1.47,-1.397 -2.049,-2.692 -0.316,-0.704 -3.048,-0.534 -5.072,-2.555 -0.94,-1.117 -1.078,-1.481 -1.859,-2.858 C 35.993,70.315 23.937,59.692 22.31,58.766 20.132,57.519 16.294,55.195 17.65,52.847 17.747,52.689 16.513,51.908 14.809,51.491 11.104,50.58 7.133,45.762 6.444,45.301 5.756,44.843 5.104,44.556 4.724,43.928 4.112,42.908 2.708,40.795 0.372,39.686 c -0.696,-0.324 -2.292,1.263 -2.522,0.117 -0.231,-1.141 1.49,-1.603 1.145,-2.975 -0.238,-0.964 0.568,-3.976 0.394,-4.433 -0.247,-0.652 -2.26,-0.903 -3.179,-1.045 -1.7,-0.259 -3.287,3.028 -4.619,2.267 -1.336,-0.757 1.065,-1.732 -0.587,-2.19 -2.153,-0.599 -8.441,-3.312 -10.874,3.894 -0.316,0.932 -3.955,1.899 -4.501,2.879 -0.341,0.607 -0.519,1.85 -1.377,1.376 -1.053,-0.583 -6.166,-4.598 -10.882,-5.04 -2.417,-0.23 -6.647,-2.64 -7.218,-3.781 -0.571,-1.146 -0.745,-2.854 -1.352,-3.429 -2.818,-2.676 -16.303,-7.773 -17.205,-8.372 -1.891,-1.251 -16.554,-8.793 -17.643,-9.165 -1.264,-0.425 -5.862,-1.656 -7.983,-2.871 -2.448,-1.401 -8.082,-4.749 -12.567,-6.462 -0.2,-0.318 -0.291,-0.543 -0.247,-0.63 0.232,-0.462 0.976,0.34 1.664,0.684 0.689,0.344 1.778,1.206 3.15,1.947 1.377,0.745 2.579,1.089 3.377,1.259 0.525,0.111 1.368,0.298 2.176,0.526 1.906,1.097 3.566,2.029 4.827,2.474 3.611,1.271 4.631,1.599 6.137,1.951 5.246,1.227 27.57,12.34 29.237,12.599 6.154,0.959 6.012,3.607 6.756,3.607 6.082,0 9.259,3.372 9.551,4.251 0.295,0.882 -0.32,1.606 1.029,1.769 3.181,0.38 5.408,-0.15 7.755,-0.806 2.041,-2.15 4.644,-3.793 4.693,-4.522 0.097,-1.275 -6.389,3.122 -7.271,3.122 -0.877,0 -2.668,0.346 -3.207,-0.865 0.01,-0.01 0.013,-0.018 0.013,-0.018 0,0 0.032,-0.136 0.092,-0.357 0.055,-0.185 0.089,-0.293 0.122,-0.442 0.233,-0.818 0.647,-2.127 1.19,-3.27 0.855,-1.789 2.774,-3.004 2.774,-3.004 0,0 -2.523,-5.271 -3.093,-6.586 -0.571,-1.32 -1.373,-6.186 -2.178,-7.85 -0.798,-1.66 -5.611,-7.502 -6.016,-8.251 -0.397,-0.74 -0.397,-1.999 -0.397,-1.999 0,0 -0.4,-0.292 -1.206,-0.862 -0.798,-0.576 -3.202,-2.867 -4.064,-4.069 -0.859,-1.203 -2.523,-3.263 -3.491,-4.579 -0.975,-1.32 -6.704,-7.619 -7.335,-8.251 -0.631,-0.631 -0.745,-0.975 -1.32,-2.06 -0.57,-1.089 -2,-1.663 -3.319,-2.867 -1.321,-1.198 -10.995,-3.493 -13.979,-5.383 -2.976,-1.891 -12.141,-11.227 -13.57,-12.773 -1.438,-1.547 -5.275,-3.551 -6.36,-3.611 -1.093,-0.053 -2.697,0.06 -3.668,-0.397 -0.972,-0.462 -1.203,-2.234 -1.372,-2.862 -0.174,-0.632 -1.608,-3.328 -2.58,-5.846 -0.975,-2.522 -3.262,-6.473 -3.549,-6.987 -0.287,-0.519 -0.972,-1.49 -1.434,-2.235 -0.461,-0.744 -0.655,-1.931 -0.17,-2.235 1.328,-0.83 2.174,0.689 3.608,2.178 1.947,2.024 5.198,3.486 6.072,4.413 1.413,1.494 4.696,6.587 5.04,7.101 0.34,0.518 2.462,2.348 3.149,2.805 0.685,0.461 2.122,1.721 2.81,2.178 0.688,0.458 4.235,2.174 5.494,2.806 1.263,0.628 9.684,4.526 11.975,5.441 2.292,0.919 5.781,2.404 7.332,3.21 1.546,0.798 3.493,2.749 4.753,3.494 1.258,0.741 2.861,1.028 3.323,1.316 0.457,0.283 3.607,2.291 4.639,3.036 1.033,0.745 3.664,1.547 3.664,1.547 0,0 3.899,2.177 4.983,2.974 1.09,0.806 3.956,2.985 5.098,3.782 1.149,0.805 4.699,4.931 4.699,4.931 0,0 0.175,0.113 1.203,0.052 1.032,-0.052 9.448,1.664 11.801,1.891 2.347,0.231 8.133,-0.631 9.793,-0.514 1.66,0.117 2.004,-0.057 2.004,-0.057 0,0 -5.21,-8.364 -7.158,-12.027 -1.952,-3.668 -4.469,-5.385 -5.211,-5.785 -0.749,-0.405 -2.177,0.226 -3.04,0 -0.858,-0.232 -1.319,-1.547 -1.428,-2.179 -0.118,-0.631 -0.118,-0.744 -0.749,-4.525 -0.628,-3.782 -2.344,-8.534 -2.745,-9.219 -0.405,-0.688 -0.405,-2.121 -0.519,-2.695 -0.113,-0.572 -0.518,-0.632 -0.688,-1.085 -0.169,-0.462 -0.056,-2.353 0.746,-2.466 0.8,-0.113 0.517,0.514 1.149,1.028 0.627,0.519 0.627,1.032 1.368,2.065 0.749,1.032 0.976,1.202 3.097,2.749 2.122,1.547 2.06,2.177 2.862,2.923 0.802,0.741 1.49,3.149 1.83,3.664 0.349,0.513 1.32,2.809 1.951,4.242 0.632,1.428 0.231,0.571 1.089,1.259 0.859,0.684 15.408,13.748 16.899,15.234 1.485,1.489 7.845,6.53 8.934,7.445 1.089,0.919 3.327,2.323 4.87,4.983 0.255,0.445 0,3.842 0,4.587 0,0.741 -1.032,1.773 -1.72,2.461 -0.685,0.688 -3.951,1.033 -6.012,1.373 -2.064,0.344 -8.846,2.21 -11.129,2.915 -2.196,0.672 -11.949,1.4 -12.719,1.457 -0.062,-0.037 -0.053,0.004 -0.053,0.004 0,0 0.022,-10e-4 0.053,-0.004 0.082,0.048 0.29,0.235 0.837,0.862 0.968,1.109 7.797,6.19 9.109,7.405 1.307,1.21 2.498,4.736 2.732,6.578 0.243,1.846 0.867,13.263 1.79,14.129 1.319,1.247 5.093,8.016 6.19,9.262 1.092,1.251 7.364,5.903 8.222,6.871 0.859,0.959 1.68,3.444 2.312,4.303 0.627,0.858 5.38,4.06 5.983,4.55 0.611,0.486 13.169,14.7 14.06,15.797 0.89,1.101 4.943,2.935 5.619,3.445 5.259,3.971 7.4,6.603 6.538,7.87"
     style="fill:#ffffff;fill-rule:evenodd;stroke:none"
     transform="matrix(0.17459001,0,0,-0.17459001,83.797658,14.528765)"
     clip-path="url(#clipPath80)" />
  <path
     id="path81"
     d="m 0,0 c -2.607,-1.041 -4.692,-1.356 -8.133,-1.458 7.505,3.024 11.157,7.927 11.157,14.595 0,4.174 -2.085,7.509 -5.522,8.967 -1.878,0.736 -3.862,1.149 -6.882,1.566 l -17.623,2.502 c -3.546,0.522 -6.57,1.458 -9.072,2.923 -4.899,2.814 -8.238,8.753 -8.238,14.801 0,3.862 1.254,7.716 3.651,10.744 0.83,1.142 1.563,1.563 2.291,1.563 0.94,0 1.567,-0.834 1.567,-2.085 0,-0.522 -0.105,-1.563 -0.421,-2.506 -0.935,-3.125 -1.352,-5.939 -1.352,-8.238 0,-3.749 2.291,-7.712 5.315,-9.481 1.774,-1.049 4.591,-1.879 6.988,-2.3 L -8.133,28.986 C -4.376,28.468 -1.875,27.844 0.417,27.01 5.736,24.925 9.384,19.5 9.384,13.659 9.384,7.61 5.631,2.194 0,0 m -15.222,-7.712 c -5.215,0 -9.906,0.623 -14.287,1.878 l -7.189,1.98 c -1.567,0.413 -2.713,0.627 -3.757,0.627 -1.984,0 -3.231,-0.627 -4.587,-2.194 v 17.1 c 1.04,-3.441 2.603,-5.837 4.797,-7.611 5.109,-3.964 15.222,-6.566 25.44,-6.566 1.563,0 3.858,0.102 6.777,0.311 1.98,0.102 3.024,0.102 4.174,0.102 3.749,0 5.003,-0.413 5.104,-1.664 0.106,-2.19 -7.298,-3.963 -16.472,-3.963 m -0.522,67.146 c 9.696,0 17.934,-2.085 21.269,-5.421 1.879,-1.774 2.713,-3.859 2.814,-7.405 -5.004,4.797 -13.865,7.716 -23.46,7.716 -11.465,0 -19.185,-3.441 -22.727,-10.007 0.939,10.424 7.716,15.117 22.104,15.117 m 11.991,-25.541 -19.08,2.704 c -3.129,0.421 -4.485,0.838 -5.732,1.567 -2.195,1.254 -3.441,3.44 -3.441,5.837 0,5.737 6.461,9.384 16.679,9.384 9.906,0 19.29,-3.441 23.565,-8.441 H 9.59 V 63.292 H 8.238 C 7.299,62.037 6.465,61.624 4.797,61.624 c -0.939,0 -1.879,0.206 -3.648,0.627 -9.388,2.085 -12.513,2.607 -17.934,2.607 -17.205,0 -28.573,-8.343 -28.573,-20.857 0,-10.007 6.987,-17.307 17.833,-18.869 L -9.49,22.731 c 2.296,-0.312 4.692,-0.834 6.255,-1.356 3.235,-1.146 5.319,-4.17 5.319,-7.817 0,-3.546 -1.983,-6.778 -4.898,-8.34 -2.818,-1.461 -6.987,-2.19 -12.615,-2.19 -6.468,0 -13.136,1.142 -18.767,3.125 -5.421,1.98 -8.45,4.065 -10.534,7.405 h -1.356 V -6.668 h 1.461 c 1.251,1.77 2.295,2.397 4.17,2.397 1.044,0 2.084,-0.21 3.858,-0.627 l 6.882,-1.879 c 4.797,-1.357 9.384,-1.874 14.809,-1.874 19.181,0 30.128,8.238 30.128,22.731 0,10.845 -6.883,18.141 -18.975,19.813"
     style="fill:#ffffff;fill-rule:nonzero;stroke:none"
     transform="matrix(0.17459001,0,0,-0.17459001,38.654375,21.325344)"
     clip-path="url(#clipPath82)" />
  <path
     id="path83"
     d="m 0,0 11.157,-25.751 h -22.31 z m 19.185,-53.799 c 1.773,0.834 2.712,2.292 2.712,4.17 0,1.045 -0.207,1.981 -0.834,3.543 l -4.38,10.116 H -15.85 l -3.542,5.004 -6.469,-14.598 c -0.623,-1.457 -0.935,-2.915 -0.935,-3.963 0,-1.87 1.457,-3.227 4.692,-4.272 h -15.744 c 1.983,0.624 3.234,1.981 4.275,4.693 l 0.417,1.04 23.982,54.948 c 0.628,1.356 0.729,1.984 0.729,2.923 0,1.458 -0.417,2.397 -1.672,3.543 h 0.838 c 3.959,0 6.882,-1.875 6.777,-4.272 0,-0.943 -0.417,-2.299 -0.939,-3.441 l -15.951,-36.601 h 40.245 l -8.55,5.32 L 0.521,1.356 v 9.696 C 2.606,10.534 3.647,9.283 5.319,5.319 l 22.104,-51.612 0.522,-1.457 c 1.457,-3.647 3.125,-5.113 6.461,-6.049 z m 14.914,6.466 -24.088,56.721 c -0.416,1.045 -0.623,1.563 -0.623,2.085 0,0.935 0.728,1.458 2.186,1.875 v 1.356 h -23.772 v -1.356 c 1.875,-0.523 2.709,-1.668 2.709,-3.438 0,-0.834 -0.102,-1.672 -0.628,-2.712 L -34.091,-47.75 c -1.879,-4.17 -2.923,-5.215 -5.842,-5.732 v -1.357 h 23.768 v 1.357 c -2.705,0 -4.689,1.664 -4.689,3.955 0,0.838 0.106,1.461 0.628,2.713 l 4.275,9.804 h 32.007 l 4.068,-9.489 c 0.522,-1.045 0.729,-2.4 0.729,-3.234 0,-2.398 -1.563,-3.648 -4.797,-3.749 v -1.357 h 23.982 v 1.357 c -2.919,0.619 -4.069,1.769 -5.939,6.149"
     style="fill:#ffffff;fill-rule:evenodd;stroke:none"
     transform="matrix(0.17459001,0,0,-0.17459001,50.118653,12.915189)"
     clip-path="url(#clipPath84)" />
  <path
     id="path85"
     d="m 0,0 c -0.939,0 -1.672,-0.21 -3.55,-0.838 -6.567,-2.19 -10.737,-3.019 -16.056,-3.019 -11.258,0 -20.849,3.44 -27.525,9.695 -7.088,6.777 -11.368,16.371 -11.368,25.962 0,6.36 2.3,14.286 5.32,18.768 0.729,1.044 1.251,1.567 1.672,1.567 0.729,0 1.142,-0.838 1.142,-2.089 0,-0.834 -0.207,-1.774 -0.83,-4.587 -1.15,-5.214 -1.462,-7.927 -1.462,-11.574 0,-19.286 13.453,-32.529 33.156,-32.529 4.591,0 6.154,0.312 14.287,2.397 1.251,0.315 2.708,0.522 3.441,0.522 3.02,0 4.898,-2.19 5.105,-5.732 C 2.19,-0.417 1.352,0 0,0 m -21.27,63.077 c 13.343,0 22.728,-5.416 22.832,-13.343 -4.379,5.109 -13.136,8.546 -21.998,8.546 -9.072,0 -15.849,-3.125 -21.168,-9.696 -4.276,-1.457 -6.778,-3.647 -9.696,-8.133 3.02,13.874 14.594,22.626 30.03,22.626 M 3.332,16.263 C 0.207,10.53 -8.655,6.883 -19.396,6.883 c -15.849,0 -26.901,10.323 -26.901,24.917 0,14.809 10.846,25.545 25.962,25.545 8.967,0 17.412,-3.546 22.104,-9.174 h 1.356 v 18.558 h -1.25 c -0.94,-1.146 -2.085,-1.668 -3.964,-1.668 -1.247,0 -2.396,0.312 -4.38,0.83 l -2.502,0.737 c -4.482,1.457 -8.55,2.085 -12.72,2.085 -21.27,0 -37.848,-16.165 -37.848,-36.707 0,-8.651 3.024,-17.1 8.761,-23.873 7.089,-8.448 17.829,-12.93 30.755,-12.93 5.635,0 8.967,0.627 16.687,3.024 1.664,0.522 2.397,0.729 3.336,0.729 1.352,0 2.292,-0.522 3.332,-1.769 h 1.356 v 19.076 z"
     style="fill:#ffffff;fill-rule:nonzero;stroke:none"
     transform="matrix(0.17459001,0,0,-0.17459001,26.229501,21.998284)"
     clip-path="url(#clipPath86)" />
  <path
     id="path87"
     d="m 0,0 11.157,-25.751 h -22.31 z m 19.186,-53.799 c 1.768,0.834 2.711,2.292 2.711,4.17 0,1.045 -0.21,1.981 -0.834,3.543 l -4.379,10.116 h -32.533 l -3.543,5.004 -6.468,-14.598 c -0.624,-1.457 -0.936,-2.915 -0.936,-3.963 0,-1.87 1.462,-3.227 4.692,-4.272 h -15.744 c 1.984,0.624 3.231,1.981 4.275,4.693 l 0.417,1.04 23.979,54.948 c 0.627,1.356 0.733,1.984 0.733,2.923 0,1.458 -0.417,2.397 -1.668,3.543 h 0.829 c 3.964,0 6.883,-1.875 6.781,-4.272 0,-0.943 -0.417,-2.299 -0.939,-3.441 l -15.951,-36.601 h 40.245 l -8.55,5.32 L 0.522,1.356 v 9.696 C 2.607,10.534 3.647,9.283 5.32,5.319 l 22.104,-51.612 0.518,-1.457 c 1.461,-3.647 3.129,-5.113 6.465,-6.049 z m 14.909,6.466 -24.087,56.721 c -0.413,1.045 -0.624,1.563 -0.624,2.085 0,0.935 0.733,1.458 2.19,1.875 v 1.356 h -23.771 v -1.356 c 1.874,-0.523 2.708,-1.668 2.708,-3.438 0,-0.834 -0.101,-1.672 -0.623,-2.712 L -34.095,-47.75 c -1.874,-4.17 -2.919,-5.215 -5.838,-5.732 v -1.357 h 23.772 v 1.357 c -2.712,0 -4.696,1.664 -4.696,3.955 0,0.838 0.109,1.461 0.628,2.713 l 4.279,9.804 h 32.006 l 4.069,-9.489 c 0.521,-1.045 0.728,-2.4 0.728,-3.234 0,-2.398 -1.562,-3.648 -4.797,-3.749 v -1.357 h 23.982 v 1.357 c -2.919,0.619 -4.068,1.769 -5.943,6.149"
     style="fill:#ffffff;fill-rule:evenodd;stroke:none"
     transform="matrix(0.17459001,0,0,-0.17459001,7.3282492,12.915189)"
     clip-path="url(#clipPath88)" />
  <path
     id="path89"
     d="M 0,0 C 1.229,0.313 2.118,0.701 2.77,1.101 Z"
     style="fill:#ffffff;fill-rule:nonzero;stroke:none"
     transform="matrix(0.17459001,0,0,-0.17459001,75.313666,10.755562)"
     clip-path="url(#clipPath90)" />
  <path
     id="path91"
     d="m 0,0 c -0.207,-0.136 -0.387,-0.312 -0.5,-0.572 0.207,-0.728 0.207,-0.603 0.332,-1.376 -0.085,-0.154 -52.782,-26.926 -56.915,-28.1 -7.385,-2.093 -13.801,-0.485 -14.704,0.194 6.498,1.936 13.093,6.939 16.61,8.182 3.612,1.272 4.632,1.6 6.138,1.952 3.359,0.785 13.717,5.622 21.174,9.07 l -0.403,-0.16 c 0,0 -46.669,-15.121 -50.174,-18.092 4.619,-4.32 11.623,-5.773 21.297,-4.599 8.037,0.976 55.471,28.873 57.581,30.383 C 2.06,-1.958 0.712,-0.578 0,0"
     style="fill:#ffffff;fill-rule:nonzero;stroke:none"
     transform="matrix(0.17459001,0,0,-0.17459001,78.477081,9.5725756)"
     clip-path="url(#clipPath92)" />
  <path
     id="path93"
     d="m 0,0 c -0.324,0.481 -9.174,-2.534 -10.975,-4.68 -0.745,-0.895 -3.975,-5.659 -5.109,-6.57 -0.611,-0.498 -17.473,-11.457 -19.424,-13.687 -0.939,-1.069 -1.943,-2.333 -2.704,-2.988 -1.073,-0.919 -4.979,-2.138 -6.404,-3.559 -0.907,-0.903 -4.438,-3.797 -5.113,-4.356 -0.681,-0.555 -2.502,-1.19 -3.543,-2.291 -1.166,-1.231 -1.373,-2.352 -2.996,-2.749 -0.505,-0.126 -2.688,0.065 -3.19,0.283 -0.502,0.211 -1.146,0.534 -1.036,1.247 0.105,0.717 0.429,1.595 0.964,2.632 0.534,1.036 0.712,0.68 1.072,0.963 0.356,0.283 3.736,2.485 3.736,3.559 0,1.072 -1.136,1.206 -1.498,1.493 -0.355,0.288 -0.177,0.709 -0.465,1.138 -0.287,0.429 -0.68,0.393 -0.68,0.393 0,0 0.146,0.502 0.073,0.643 -0.073,0.142 -1.093,1.093 -1.061,1.486 0.037,0.393 1.397,1.32 0.466,1.563 -3.065,0.81 -4.081,1.749 -6.052,3.445 -2.004,1.721 -4.773,1.615 -6.218,1.615 -0.851,0 -7.442,-1.619 -7.442,-8.777 0,-7.165 7.121,-9.618 7.121,-9.618 0,0 -3.724,-2.118 -5.671,-2.522 -1.948,-0.401 -3.15,0.631 -5.672,0.17 -2.518,-0.454 -6.469,-4.753 -8.016,-6.012 -1.546,-1.263 -3.838,-2.061 -6.359,-3.55 -2.523,-1.495 -5.211,-5.098 -6.243,-5.786 -1.029,-0.688 -1.259,0.057 -3.607,-0.745 -2.349,-0.802 -23.772,-13.861 -26.808,-15.464 -3.037,-1.608 -7.044,-2.065 -11.287,-4.012 -4.235,-1.948 -7.558,-6.073 -7.332,-6.526 0.232,-0.462 0.976,0.34 1.664,0.684 0.689,0.344 1.778,1.206 3.15,1.947 1.377,0.745 2.579,1.089 3.377,1.259 0.525,0.111 1.368,0.298 2.177,0.526 1.905,1.097 3.565,2.029 4.826,2.474 3.611,1.271 4.632,1.6 6.137,1.952 5.246,1.226 27.57,12.339 29.237,12.598 6.154,0.959 6.012,3.607 6.757,3.607 6.081,0 9.258,3.372 9.55,4.251 0.295,0.882 -0.32,1.607 1.029,1.769 3.181,0.381 5.408,-0.15 7.756,-0.806 2.041,-2.149 4.643,-3.793 4.692,-4.522 0.097,-1.275 -6.389,3.122 -7.271,3.122 -0.877,0 -2.668,0.346 -3.207,-0.865 0.01,-0.009 0.013,-0.018 0.013,-0.018 0,0 0.032,-0.135 0.092,-0.357 0.056,-0.185 0.089,-0.293 0.122,-0.442 0.233,-0.818 0.647,-2.127 1.19,-3.27 0.855,-1.789 2.774,-3.003 2.774,-3.003 0,0 -2.523,-5.271 -3.093,-6.587 -0.571,-1.32 -1.373,-6.186 -2.178,-7.85 -0.798,-1.66 -5.611,-7.501 -6.016,-8.25 -0.397,-0.741 -0.397,-2 -0.397,-2 0,0 -0.4,-0.292 -1.206,-0.862 -0.798,-0.575 -3.202,-2.866 -4.064,-4.069 -0.859,-1.203 -2.523,-3.263 -3.491,-4.579 -0.975,-1.32 -6.704,-7.619 -7.335,-8.251 -0.631,-0.631 -0.745,-0.975 -1.32,-2.06 -0.57,-1.089 -2,-1.663 -3.319,-2.866 -1.32,-1.199 -10.995,-3.494 -13.979,-5.384 -2.976,-1.891 -12.141,-11.227 -13.57,-12.773 -1.437,-1.547 -5.275,-3.55 -6.36,-3.611 -1.093,-0.053 -2.697,0.061 -3.668,-0.397 -0.972,-0.461 -1.202,-2.234 -1.372,-2.862 -0.174,-0.632 -1.608,-3.328 -2.579,-5.846 -0.976,-2.522 -3.263,-6.473 -3.55,-6.987 -0.287,-0.518 -0.972,-1.49 -1.434,-2.235 -0.461,-0.744 -0.655,-1.931 -0.17,-2.235 1.328,-0.83 2.174,0.689 3.608,2.178 1.947,2.025 5.198,3.486 6.072,4.413 1.413,1.494 4.696,6.587 5.04,7.101 0.34,0.518 2.462,2.348 3.149,2.806 0.685,0.46 2.122,1.72 2.81,2.177 0.688,0.458 4.235,2.174 5.494,2.806 1.263,0.628 9.684,4.526 11.975,5.441 2.292,0.919 5.781,2.405 7.332,3.21 1.546,0.798 3.493,2.749 4.753,3.494 1.258,0.741 2.861,1.028 3.323,1.316 0.457,0.283 3.607,2.291 4.64,3.036 1.032,0.745 3.663,1.547 3.663,1.547 0,0 3.899,2.178 4.983,2.974 1.09,0.806 3.956,2.985 5.098,3.782 1.149,0.805 4.699,4.931 4.699,4.931 0,0 0.175,0.113 1.203,0.053 1.032,-0.053 9.448,1.663 11.801,1.89 2.347,0.231 8.133,-0.631 9.793,-0.514 1.66,0.117 2.004,-0.057 2.004,-0.057 0,0 -5.21,-8.364 -7.158,-12.027 -1.952,-3.668 -4.469,-5.385 -5.211,-5.785 -0.749,-0.405 -2.177,0.226 -3.04,0 -0.858,-0.232 -1.319,-1.547 -1.428,-2.179 -0.118,-0.631 -0.118,-0.744 -0.749,-4.525 -0.628,-3.781 -2.344,-8.534 -2.745,-9.219 -0.405,-0.687 -0.405,-2.121 -0.519,-2.695 -0.113,-0.572 -0.518,-0.632 -0.687,-1.085 -0.17,-0.462 -0.057,-2.353 0.745,-2.466 0.8,-0.113 0.517,0.514 1.149,1.028 0.627,0.519 0.627,1.033 1.368,2.065 0.749,1.032 0.976,1.202 3.097,2.749 2.122,1.547 2.06,2.178 2.862,2.923 0.802,0.741 1.49,3.149 1.83,3.664 0.349,0.513 1.32,2.809 1.951,4.242 0.632,1.429 0.231,0.571 1.089,1.259 0.859,0.684 15.409,13.748 16.899,15.234 1.485,1.489 7.845,6.53 8.934,7.445 1.089,0.919 3.328,2.324 4.87,4.983 0.255,0.446 0,3.842 0,4.587 0,0.741 -1.032,1.773 -1.72,2.462 -0.685,0.688 -3.951,1.032 -6.012,1.372 -2.064,0.344 -8.846,2.21 -11.129,2.915 -2.196,0.672 -11.949,1.401 -12.719,1.457 0.082,0.049 0.29,0.235 0.837,0.862 0.968,1.109 7.797,6.19 9.109,7.405 1.307,1.21 2.498,4.736 2.732,6.578 0.243,1.846 0.867,13.263 1.79,14.129 1.32,1.247 5.093,8.016 6.19,9.263 1.092,1.251 7.364,5.902 8.222,6.87 0.859,0.959 1.68,3.444 2.312,4.303 0.627,0.858 5.38,4.06 5.983,4.55 0.612,0.486 13.169,14.7 14.06,15.797 0.89,1.101 4.943,2.935 5.619,3.445 5.259,3.972 7.4,6.603 6.538,7.87 z"
     style="fill:none;stroke:#007e8b icc-color(sRGB-IEC61966-2, 0.1, 0, 0.49398804, 0.54499817);stroke-width:0.155;stroke-linecap:butt;stroke-linejoin:miter;stroke-miterlimit:3.864;stroke-dasharray:none;stroke-opacity:1"
     transform="matrix(0.17459001,0,0,-0.17459001,92.636782,0.02246656)"
     clip-path="url(#clipPath94-2)" />
</svg>
