<?xml version="1.0" encoding="UTF-8" standalone="no"?>
<svg
   id="Layer_1"
   data-name="Layer 1"
   width="184"
   height="36"
   viewBox="0 0 137.99913 27.000228"
   version="1.1"
   sodipodi:docname="logo-light.svg"
   inkscape:version="1.3.2 (091e20ef0f, 2023-11-25)"
   xmlns:inkscape="http://www.inkscape.org/namespaces/inkscape"
   xmlns:sodipodi="http://sodipodi.sourceforge.net/DTD/sodipodi-0.dtd"
   xmlns="http://www.w3.org/2000/svg"
   xmlns:svg="http://www.w3.org/2000/svg"
   xmlns:rdf="http://www.w3.org/1999/02/22-rdf-syntax-ns#"
   xmlns:cc="http://creativecommons.org/ns#"
   xmlns:dc="http://purl.org/dc/elements/1.1/">
  <defs
     id="defs26" />
  <sodipodi:namedview
     id="namedview26"
     pagecolor="#ffffff"
     bordercolor="#000000"
     borderopacity="0.25"
     inkscape:showpageshadow="2"
     inkscape:pageopacity="0.0"
     inkscape:pagecheckerboard="0"
     inkscape:deskcolor="#d1d1d1"
     inkscape:document-units="px"
     inkscape:zoom="1.4054912"
     inkscape:cx="239.41809"
     inkscape:cy="187.47895"
     inkscape:window-width="1920"
     inkscape:window-height="1011"
     inkscape:window-x="0"
     inkscape:window-y="0"
     inkscape:window-maximized="1"
     inkscape:current-layer="Layer_1" />
  <title
     id="title1">think-africa-creative-client</title>
  <path
     d="m 8.0567801,18.014789 c -0.05536,-0.731207 -0.114549,-1.463368 -0.219552,-2.187892 -0.02673,-0.18137 -0.211917,-0.381831 -0.381832,-0.477289 -0.09546,-0.05346 -0.351284,0.04677 -0.455333,0.154642 a 16.633515,16.633515 0 0 0 -1.336409,1.483413 81.767209,81.767209 0 0 0 -5.66732695,8.470922 v 0.229099 c 0.328375,0.280645 0.448651,0.273009 0.744571,-0.06491 A 2.8780515,2.8780515 0 0 0 1.0272711,25.233307 c 0.512608,-0.83621 1.013761,-1.679102 1.527324,-2.513403 0.286373,-0.466789 0.525972,-0.989897 1.018534,-1.286771 1.098719,-0.661522 2.307214,-0.968896 3.579666,-1.057672 0.254873,-0.01718 0.335057,0.09546 0.328375,0.337921 a 8.1750027,8.1750027 0 0 0 0.0095,1.026171 5.6568269,5.6568269 0 0 0 0.205234,1.029989 c 0.03341,0.113595 0.230053,0.277782 0.309283,0.256781 0.13555,-0.03532 0.262509,-0.183279 0.344603,-0.31501 0.05155,-0.08305 0.02577,-0.222417 0.01814,-0.335057 -0.09928,-1.453822 -0.200462,-2.908598 -0.311193,-4.361465 z m -3.848857,2.326305 c 0.105959,-0.498289 1.993158,-3.211199 2.870415,-4.130457 0.100231,1.152175 0.196643,2.26044 0.294965,3.396387 -1.060536,0.223371 -2.159255,0.234826 -3.16538,0.73407 z"
     id="path1"
     style="stroke-width:0.0954578;fill:#ffffff" />
  <path
     d="m 14.777007,24.805654 c -0.18137,-0.115504 -0.946941,0.063 -1.069127,0.246281 a 0.26059969,0.26059969 0 0 0 -0.02482,0.104049 c -0.07732,0.477289 -0.157506,0.954577 -0.22719,1.431866 a 3.4880266,3.4880266 0 0 0 -0.01336,0.412378 h 0.171824 a 2.386444,2.386444 0 0 1 0.240554,-0.05918 1.2094498,1.2094498 0 0 0 0.763662,-0.394241 c 0.303556,-0.336966 0.25869,-0.64243 -0.120277,-0.852437 a 3.2169266,3.2169266 0 0 0 0.349375,-0.435288 c 0.08973,-0.150823 0.117414,-0.334102 -0.07064,-0.453424 z m -0.914486,1.832789 a 2.8933247,2.8933247 0 0 1 0.09546,-0.514517 c 0.03532,-0.09069 0.152733,-0.149869 0.231963,-0.223372 0.06968,0.07923 0.17946,0.148914 0.201415,0.239599 0.08209,0.317875 -0.15655,0.543155 -0.528836,0.49829 z m 0.166097,-0.932622 a 3.5223914,3.5223914 0 0 1 0.115504,-0.562247 c 0.02386,-0.06778 0.153687,-0.09546 0.234826,-0.145096 0.03818,0.06587 0.107867,0.132687 0.106913,0.197598 -0.0029,0.277782 -0.154642,0.446742 -0.457243,0.509745 z"
     id="path2"
     style="stroke-width:0.0954578;fill:#ffffff" />
  <path
     d="m 33.714867,22.784813 a 1.1159012,1.1159012 0 0 0 0.72644,-0.589929 v -0.343648 c -0.15082,-0.021 -0.31215,-0.08782 -0.44961,-0.05441 -0.52597,0.127914 -0.99849,0.922122 -0.85912,1.444276 a 0.41046837,0.41046837 0 0 0 0.26442,0.250099 c 0.33888,0.06109 0.63575,-0.07255 0.87821,-0.308328 0.0477,-0.04582 0.0487,-0.139368 0.085,-0.255827 -0.20046,0.118368 -0.33792,0.229099 -0.49447,0.280646 a 0.29591906,0.29591906 0 0 1 -0.26541,-0.108823 c -0.0582,-0.106913 -0.0783,-0.263463 0.11454,-0.314056 z m 0.2692,-0.803754 c 0.0954,0.374194 0.0219,0.490653 -0.36274,0.602338 0.0324,-0.251054 0.084,-0.470607 0.36274,-0.602338 z"
     id="path3"
     style="stroke-width:0.0954578;fill:#ffffff" />
  <path
     d="m 16.835076,14.412213 a 0.50019867,0.50019867 0 0 0 0.338875,-0.190916 c 0.602339,-0.820936 1.431867,-1.301089 2.386444,-1.585553 a 2.2728493,2.2728493 0 0 1 0.946941,-0.02577 0.51547191,0.51547191 0 0 1 0.337921,0.357967 c 0.01718,0.136504 -0.120277,0.329329 -0.243418,0.436242 -0.14605,0.126959 -0.35033,0.185188 -0.525972,0.286373 -0.39424,0.215735 -0.786572,0.436242 -1.178903,0.65484 l 0.0315,0.07255 h 9.481819 c -0.489698,-0.650067 -0.947895,-1.26577 -1.419457,-1.870972 -0.04391,-0.05632 -0.170869,-0.06873 -0.25869,-0.06873 q -9.023622,0 -18.0415169,0.0048 a 0.46010641,0.46010641 0 0 0 -0.315965,0.168961 c -0.387559,0.51929 -0.757935,1.050035 -1.132129,1.579826 a 1.3555002,1.3555002 0 0 0 -0.09546,0.17946 c 0.0735,0.0057 0.120277,0.01241 0.167051,0.01241 q 4.7595239,-0.0038 9.5209569,-0.01145 z"
     id="path4"
     style="stroke-width:0.0954578;fill:#ffffff" />
  <path
     d="m 25.321271,10.276983 a 0.56129164,0.56129164 0 0 0 -0.518336,-0.259646 c -4.518015,0.0076 -9.036986,0.02482 -13.555002,-0.01336 -0.718797,-0.0067 -1.197995,0.150824 -1.5349599,0.799936 -0.206189,0.397105 -0.512609,0.741707 -0.797073,1.145494 H 26.567949 c -0.44006,-0.588975 -0.854347,-1.122584 -1.246678,-1.67242 z"
     id="path5"
     style="stroke-width:0.0954578;fill:#ffffff" />
  <path
     d="M 23.456026,7.756898 A 0.43719655,0.43719655 0 0 0 23.051285,7.557391 q -5.360907,0.0086 -10.720861,0 a 0.41237753,0.41237753 0 0 0 -0.381831,0.190915 c -0.367512,0.5212 -0.748389,1.033808 -1.122583,1.551189 -0.04009,0.05632 -0.06968,0.120277 -0.113595,0.190916 H 24.712251 C 24.268372,8.882345 23.855994,8.324871 23.456026,7.756898 Z"
     id="path6"
     style="stroke-width:0.0954578;fill:#ffffff" />
  <path
     d="M 21.632783,5.368544 A 0.375149,0.375149 0 0 0 21.366456,5.260677 q -3.699943,-0.0086 -7.40084,0 A 0.43624197,0.43624197 0 0 0 13.666833,5.414364 C 13.296457,5.89738 12.941354,6.392806 12.583387,6.885368 a 1.2123136,1.2123136 0 0 0 -0.08591,0.172779 H 22.902371 C 22.45372,6.461536 22.049934,5.90979 21.632783,5.368544 Z"
     id="path7"
     style="stroke-width:0.0954578;fill:#ffffff" />
  <path
     d="m 24.467879,18.439576 c 0.118367,-0.420969 0.259645,-0.83621 0.374194,-1.258134 a 0.37037611,0.37037611 0 0 0 -0.05059,-0.294964 3.3486583,3.3486583 0 0 0 -0.45056,-0.353194 c -0.134596,0.222417 -0.258691,0.411423 -0.367513,0.609021 -0.35033,0.63193 -0.659613,1.289634 -1.050035,1.893882 -0.351284,0.539336 -0.88012,0.835255 -1.560734,0.745525 -0.490653,-0.06396 -0.755071,-0.344603 -0.705433,-0.827619 a 2.3597159,2.3597159 0 0 1 0.254872,-0.834301 c 0.334102,-0.636703 0.89253,-1.070081 1.506324,-1.40132 0.717842,-0.387558 1.475777,-0.702569 2.209847,-1.062445 0.08877,-0.04391 0.212871,-0.217643 0.190915,-0.246281 a 0.58229234,0.58229234 0 0 0 -0.300692,-0.24819 1.0949005,1.0949005 0 0 0 -0.477289,0.02577 c -1.050035,0.245326 -1.919655,0.811391 -2.722455,1.498687 -0.554609,0.477288 -1.050035,0.997533 -1.308726,1.701057 -0.190915,0.515472 -0.150823,1.018534 0.159415,1.472913 0.517381,0.757935 1.704875,0.941214 2.528676,0.354149 0.381831,-0.271101 0.683477,-0.651977 0.970805,-0.932623 0.233872,0.151778 0.482062,0.409514 0.777026,0.483971 a 2.9887825,2.9887825 0 0 0 1.213269,0.05441 c 1.302043,-0.226235 2.597405,-0.49638 3.889903,-0.773208 0.677749,-0.14605 1.346909,-0.334102 2.016069,-0.515472 0.23005,-0.06205 0.26346,-0.183279 0.0897,-0.33792 a 0.52979057,0.52979057 0 0 0 -0.36752,-0.143187 c -0.83812,0.119322 -1.672413,0.265373 -2.508623,0.399968 -1.259088,0.203325 -2.517221,0.412378 -3.778218,0.601384 -0.494471,0.0735 -0.666295,-0.137459 -0.532654,-0.611884 z"
     id="path8"
     style="stroke-width:0.0954578;fill:#ffffff" />
  <path
     d="m 14.320719,19.032368 c 0,0.111686 0,0.154642 0,0.196643 -0.04773,0.71307 -0.09546,1.425185 -0.140323,2.139209 -0.01527,0.2606 0.12314,0.413332 0.353193,0.41715 0.230054,0.0038 0.376104,-0.154641 0.392332,-0.398059 q 0.05537,-0.826664 0.109776,-1.654283 c 0.02673,-0.408559 0.08878,-0.820936 0.05728,-1.225677 a 0.9765329,0.9765329 0 0 0 -0.319784,-0.623339 c -0.08687,-0.07064 -0.410468,0.04105 -0.547927,0.160369 a 7.6919864,7.6919864 0 0 0 -0.897303,0.947895 c -0.286373,0.358921 -0.535518,0.752207 -0.840983,1.187495 0.02959,-0.430515 0.07541,-0.788481 0.07255,-1.145493 A 6.027203,6.027203 0 0 0 12.46407,17.905012 C 12.37911,17.492635 12.097512,17.393359 11.73,17.599547 a 1.7821964,1.7821964 0 0 0 -0.394241,0.278737 c -0.477288,0.484926 -0.94885,0.981306 -1.4585939,1.511096 0.06014,-0.251053 0.1269589,-0.468697 0.1603689,-0.692068 a 2.2251204,2.2251204 0 0 0 0.02768,-0.645295 c -0.01432,-0.09546 -0.1546419,-0.212871 -0.2625089,-0.250099 -0.05728,-0.01909 -0.190916,0.09546 -0.245327,0.176597 a 1.6227819,1.6227819 0 0 0 -0.175642,0.419059 c -0.409514,1.386047 -0.543155,2.820777 -0.740752,4.243098 -0.01241,0.08973 0.05536,0.190915 0.08591,0.286373 0.105003,-0.06014 0.262509,-0.09546 0.303556,-0.185188 a 5.8477425,5.8477425 0 0 0 0.294964,-0.831437 c 0.274918,-0.924986 0.673932,-1.78506 1.3564549,-2.481902 0.320738,-0.326465 0.690159,-0.603293 1.037626,-0.902076 l 0.103094,0.06873 c -0.137459,0.920213 -0.286373,1.839471 -0.408559,2.761593 a 5.7771037,5.7771037 0 0 0 -0.05059,0.935486 c 0.0057,0.212871 0.160369,0.252963 0.317875,0.134595 a 1.8556989,1.8556989 0 0 0 0.36083,-0.362739 c 0.477289,-0.629067 0.945986,-1.266725 1.420411,-1.89961 0.268237,-0.36083 0.54411,-0.719751 0.858166,-1.132129 z"
     id="path9"
     style="stroke-width:0.0954578;fill:#ffffff" />
  <path
     d="m 17.660786,15.326698 a 3.4784808,3.4784808 0 0 1 1.644737,-1.610372 c 0.353194,-0.163233 0.725479,-0.286374 1.079627,-0.447697 0.08496,-0.03818 0.190916,-0.16896 0.180415,-0.239599 -0.0105,-0.07064 -0.134595,-0.17087 -0.229098,-0.210007 a 0.70065997,0.70065997 0 0 0 -0.310238,-0.01623 c -0.70066,0.05823 -1.28868,0.376104 -1.81847,0.814255 -0.954578,0.788481 -1.540689,1.822288 -1.832789,2.995464 -0.261555,1.050036 -0.402832,2.127754 -0.582293,3.195926 -0.07732,0.458197 -0.126004,0.923077 -0.168005,1.386047 a 0.31596519,0.31596519 0 0 0 0.273963,0.37324 c 0.21669,0.03723 0.295919,-0.118368 0.332193,-0.277783 0.09546,-0.398058 0.151778,-0.802799 0.240554,-1.201813 a 5.6043252,5.6043252 0 0 1 0.246281,-0.904939 c 0.162278,-0.401877 0.420969,-0.450561 0.742661,-0.167051 0.336012,0.295919 0.662477,0.602338 0.993716,0.903985 0.42956,0.391376 0.850528,0.791344 1.297271,1.161721 a 0.39901344,0.39901344 0 0 0 0.390422,-0.01814 c 0.07923,-0.06968 0.0735,-0.258691 0.06396,-0.393286 0,-0.07064 -0.08782,-0.143187 -0.147005,-0.20428 -0.454379,-0.461061 -0.906849,-0.924031 -1.369819,-1.377455 -0.242463,-0.23769 -0.504017,-0.457243 -0.76939,-0.695888 0.40665,-0.230053 0.797073,-0.429559 1.164585,-0.668204 0.407605,-0.2606 0.799936,-0.546018 1.18654,-0.837164 a 0.31310146,0.31310146 0 0 0 0.07064,-0.477289 c -0.131732,-0.172779 -0.286374,-0.184234 -0.477289,-0.07255 -0.432424,0.257736 -0.873439,0.502108 -1.306817,0.763662 -0.553655,0.32742 -1.103492,0.661522 -1.712512,1.02808 0.01432,-0.198552 0.01241,-0.329329 0.03341,-0.456288 a 7.9229942,7.9229942 0 0 1 0.782754,-2.346352 z"
     id="path10"
     style="stroke-width:0.0954578;fill:#ffffff" />
  <path
     d="M 19.857269,2.98401 A 0.35223914,0.35223914 0 0 0 19.606215,2.8981 q -1.956884,-0.0086 -3.913768,0 a 0.37323985,0.37323985 0 0 0 -0.264418,0.111685 c -0.407605,0.536473 -0.800891,1.083446 -1.227587,1.665738 h 6.934052 C 20.69157,4.09132 20.281101,3.530983 19.857269,2.98401 Z"
     id="path11"
     style="stroke-width:0.0954578;fill:#ffffff" />
  <path
     d="m 33.221357,20.648468 a 3.6359861,3.6359861 0 0 0 0.47729,-0.16896 l -0.0181,-0.08591 a 1.7344675,1.7344675 0 0 0 -0.32742,-0.02291 c -0.4162,0.04678 -0.83144,0.09546 -1.24095,0.162278 -2.1898,0.351285 -4.380557,0.696842 -6.56654,1.065309 -2.141118,0.359876 -4.276508,0.74648 -6.414762,1.116856 -1.978839,0.343648 -3.958633,0.678705 -5.936518,1.027125 a 6.2725295,6.2725295 0 0 0 -0.74457,0.221462 l 0.01718,0.116459 a 1.3936833,1.3936833 0 0 0 0.270145,0.042 9.2126285,9.2126285 0 0 0 1.050036,-0.06968 c 1.06149,-0.168006 2.118207,-0.371331 3.180652,-0.540291 1.917747,-0.30451 3.84313,-0.572746 5.757058,-0.896348 2.261394,-0.381831 4.516107,-0.808527 6.770819,-1.227587 1.24573,-0.231962 2.48572,-0.487789 3.72572,-0.739798 z"
     id="path12"
     style="stroke-width:0.0954578;fill:#ffffff" />
  <path
     d="m 17.606375,0 -1.68483,2.317714 h 3.409752 C 18.750913,1.53687 18.196304,0.791345 17.606375,0 Z"
     id="path13"
     style="stroke-width:0.0954578;fill:#ffffff" />
  <path
     d="m 24.675977,23.469245 0.06205,0.03723 q -0.16896,0.518335 -0.33983,1.037626 l -0.06968,-0.02196 a 6.1274337,6.1274337 0 0 0 -0.0067,-0.649113 c -0.01146,-0.108821 -0.09546,-0.209052 -0.14605,-0.313101 a 1.2524058,1.2524058 0 0 0 -0.233872,0.262509 c -0.108821,0.232917 -0.190915,0.477289 -0.280645,0.718797 l -0.05537,-0.021 c -0.03341,-0.296874 -0.06587,-0.593747 -0.105003,-0.946941 l -0.334103,0.179461 c 0.02864,0.545064 0.05346,1.032853 0.08019,1.539733 0.448651,-0.126958 0.486834,-0.581337 0.72357,-0.904939 0.01909,0.279691 0.03627,0.520245 0.05346,0.763662 0.392331,-0.148914 1.016625,-1.281998 0.992761,-1.806061 z"
     id="path14"
     style="stroke-width:0.0954578;fill:#ffffff" />
  <path
     d="m 28.362555,22.850679 a 0.36560323,0.36560323 0 0 0 -0.286373,0.02864 4.366238,4.366238 0 0 0 -0.438151,0.328375 3.844084,3.844084 0 0 0 0.05728,-0.441015 0.7760716,0.7760716 0 0 0 -0.08209,-0.252963 c -0.105004,0.06205 -0.286373,0.108822 -0.302601,0.190915 -0.118368,0.566065 -0.207144,1.138812 -0.286373,1.710604 -0.0076,0.05537 0.10023,0.182324 0.139368,0.176596 a 0.35414829,0.35414829 0 0 0 0.251054,-0.141277 c 0.145096,-0.335057 0.257736,-0.685387 0.395195,-1.025216 a 0.86675647,0.86675647 0 0 1 0.171824,-0.206189 5.5718695,5.5718695 0 0 1 -0.06396,0.851483 c -0.01145,0.113595 -0.01432,0.312147 0.03437,0.331238 0.110731,0.04391 0.255827,0 0.369421,-0.0076 a 4.8530726,4.8530726 0 0 1 0,-0.506881 c 0.03055,-0.263463 0.08782,-0.524063 0.115504,-0.787526 0.0038,-0.08496 -0.02673,-0.22719 -0.07446,-0.249145 z"
     id="path15"
     style="stroke-width:0.0954578;fill:#ffffff" />
  <path
     d="m 16.93817,24.838109 a 1.5645527,1.5645527 0 0 0 -0.548882,1.286771 c 0,0.107867 0.08209,0.286373 0.150824,0.301647 a 0.50592613,0.50592613 0 0 0 0.381831,-0.111686 c 0.150823,-0.134595 0.257736,-0.319783 0.404741,-0.510699 0,0.126959 -0.03246,0.244372 0.0086,0.322647 a 0.3111923,0.3111923 0 0 0 0.238644,0.152733 0.30164653,0.30164653 0 0 0 0.190916,-0.213826 c 0.05155,-0.457242 0.07828,-0.917349 0.117413,-1.431866 -0.149869,0.01909 -0.338875,0.03246 -0.523109,0.06873 -0.147005,0.02673 -0.31692,0.04677 -0.420969,0.13555 z m 0,1.254315 c -0.166096,-0.277782 -0.02673,-0.983214 0.197598,-1.0949 0.07828,-0.03914 0.209053,0.02386 0.361785,0.04773 -0.208098,0.381831 -0.378967,0.699705 -0.564155,1.047171 z"
     id="path16"
     style="stroke-width:0.0954578;fill:#ffffff" />
  <path
     d="m 19.383798,24.361775 c -0.127913,-0.01241 -0.241508,0 -0.299737,0.199507 -0.121231,0.420014 -0.318829,0.819028 -0.484925,1.226632 l -0.133641,-0.03914 c 0.06014,-0.340785 0.129822,-0.67966 0.174687,-1.022353 0.0095,-0.07446 -0.06873,-0.159415 -0.106912,-0.239599 -0.09546,0.06778 -0.263464,0.121231 -0.286374,0.207143 a 9.8550593,9.8550593 0 0 0 -0.174687,1.123538 c -0.01145,0.105958 0.05155,0.219553 0.07923,0.330284 0.129822,-0.03627 0.286373,-0.03532 0.381831,-0.115504 0.145095,-0.126004 0.245326,-0.305465 0.386604,-0.490653 0,0.132686 -0.03532,0.250099 0.0086,0.313102 a 0.37323985,0.37323985 0 0 0 0.261554,0.137459 0.25105391,0.25105391 0 0 0 0.178506,-0.167051 c 0.04964,-0.399968 0.084,-0.801845 0.105958,-1.204677 0.0086,-0.08878 -0.04964,-0.253918 -0.09069,-0.258691 z"
     id="path17"
     style="stroke-width:0.0954578;fill:#ffffff" />
  <path
     d="m 31.426747,22.371481 c -0.14796,-0.08878 -0.43624,-0.06491 -0.60329,0.02291 -0.41715,0.220507 -0.57275,0.63193 -0.62429,0.99467 -0.0162,0.511653 0.23005,0.713069 0.63193,0.588019 0.51451,-0.160369 0.69875,-0.596611 0.77702,-1.064354 0.0296,-0.173733 -0.0534,-0.464879 -0.18137,-0.541245 z m -0.43242,1.226632 c -0.0267,0.06587 -0.14128,0.09546 -0.21574,0.142232 -0.0449,-0.07255 -0.13077,-0.148914 -0.12505,-0.217643 a 3.2245632,3.2245632 0 0 1 0.12696,-0.716888 c 0.0353,-0.106913 0.18233,-0.176597 0.27874,-0.262509 l 0.16514,0.33983 c -0.0792,0.254872 -0.14128,0.490652 -0.23005,0.714978 z"
     id="path18"
     style="stroke-width:0.0954578;fill:#ffffff" />
  <path
     d="m 15.934909,24.92784 c -0.433378,0.114549 -0.682523,0.421923 -0.844801,0.818073 -0.162278,0.396149 -0.145096,0.732161 0.05728,0.867711 0.20237,0.13555 0.710206,0.02386 0.945032,-0.216689 a 0.77893533,0.77893533 0 0 0 0.11264,-0.220508 6.4166707,6.4166707 0 0 1 -0.668204,0.172779 c -0.02196,0 -0.07732,-0.202371 -0.126005,-0.336966 0.155596,-0.05346 0.256782,-0.07827 0.349376,-0.122186 0.276827,-0.132686 0.502108,-0.315011 0.546973,-0.642431 0.03245,-0.277782 -0.09928,-0.391377 -0.372286,-0.319783 z m -0.497335,0.817118 c 0.127914,-0.234826 0.230054,-0.421923 0.331239,-0.60902 l 0.09546,0.04964 c 0.09737,0.332193 0.0048,0.479198 -0.426697,0.559382 z"
     id="path19"
     style="stroke-width:0.0954578;fill:#ffffff" />
  <path
     d="m 21.999341,23.919806 -0.454379,1.100628 -0.07255,-0.02864 c -0.04009,-0.262508 -0.07923,-0.525972 -0.121231,-0.787526 -0.02482,-0.154642 -0.117413,-0.22528 -0.263464,-0.157505 -0.108822,0.05059 -0.251054,0.08305 -0.182324,0.286373 a 7.6366209,7.6366209 0 0 1 0.209053,0.85912 c 0.08591,0.415241 0.07732,0.407604 -0.314057,0.572746 -0.06968,0.02959 -0.09546,0.159415 -0.143186,0.243418 0.08114,0.02386 0.16896,0.07828 0.241508,0.06205 a 0.39901344,0.39901344 0 0 0 0.231008,-0.151778 c 0.364648,-0.555564 0.72357,-1.113992 1.071036,-1.680056 a 0.31023772,0.31023772 0 0 0 0.01336,-0.279692 c -0.04391,-0.05346 -0.18137,-0.03436 -0.21478,-0.03914 z"
     id="path20"
     style="stroke-width:0.0954578;fill:#ffffff" />
  <path
     d="m 26.577495,22.986229 a 1.7707415,1.7707415 0 0 0 -0.0315,-0.263464 0.73120645,0.73120645 0 0 0 -0.269191,0.04487 0.33219301,0.33219301 0 0 0 -0.113595,0.215734 c -0.03055,0.199507 0.01241,0.422878 -0.286373,0.477289 -0.06205,0.01145 -0.103094,0.143187 -0.190915,0.2711 l 0.348421,-0.06778 c -0.02864,0.266327 -0.063,0.491607 -0.0735,0.717842 -0.01336,0.274919 0.09546,0.394241 0.332193,0.390423 0.291146,-0.0057 0.49638,-0.190916 0.489698,-0.421924 -0.127913,0.0086 -0.299737,0.0735 -0.374194,0.01432 -0.162278,-0.126959 0.05059,-0.774162 0.254872,-0.830483 0.150823,-0.042 0.286373,-0.08973 0.276828,-0.301646 l -0.415242,0.06396 a 2.386444,2.386444 0 0 0 0.0525,-0.310238 z"
     id="path21"
     style="stroke-width:0.0954578;fill:#ffffff" />
  <path
     d="m 20.200917,25.13021 c 0.02482,-0.250099 0.01814,-0.518335 0.381831,-0.559382 0.07732,-0.0086 0.142232,-0.13555 0.211916,-0.208098 -0.01432,-0.01527 -0.02768,-0.0315 -0.042,-0.04773 l -0.40665,0.06109 a 2.3377606,2.3377606 0 0 0 0.05918,-0.298783 1.9788394,1.9788394 0 0 0 -0.021,-0.269191 1.1292653,1.1292653 0 0 0 -0.321693,0.04964 c -0.05059,0.02291 -0.0735,0.133641 -0.08305,0.208098 -0.02768,0.203325 0,0.422878 -0.286374,0.477289 -0.06109,0.01145 -0.09546,0.144141 -0.17946,0.273009 l 0.362739,-0.09546 c -0.01718,0.136505 -0.03341,0.248191 -0.04582,0.360831 -0.01241,0.11264 -0.02864,0.244372 -0.03627,0.367512 -0.01336,0.226235 0.04105,0.400923 0.318829,0.397104 0.293055,-0.0048 0.495425,-0.184233 0.492562,-0.445787 l -0.400923,0.133641 c -0.0038,-0.164188 -0.01718,-0.285419 -0.0038,-0.403787 z"
     id="path22"
     style="stroke-width:0.0954578;fill:#ffffff" />
  <path
     d="m 33.106807,22.037379 -0.24151,-0.01909 -0.49256,1.164585 -0.0821,-0.01814 c -0.006,-0.09546 -0.009,-0.196643 -0.0162,-0.294965 a 4.5036972,4.5036972 0 0 0 -0.0601,-0.591838 c -0.0124,-0.05823 -0.15273,-0.145095 -0.20046,-0.127913 -0.10119,0.03723 -0.26442,0.145096 -0.25774,0.205234 0.0592,0.482062 0.15178,0.959351 0.23387,1.437594 0.43529,-0.173733 1.14741,-1.278179 1.11686,-1.755468 z"
     id="path23"
     style="stroke-width:0.0954578;fill:#ffffff" />
  <path
     d="m 29.717097,22.274114 c -0.105,0.500199 -0.174684,1.008034 -0.241504,1.515869 -0.01432,0.111686 -0.0057,0.29401 0.05727,0.331239 0.09546,0.05727 0.251054,0.01527 0.381834,0.01527 l -0.006,-0.100231 a 2.9878279,2.9878279 0 0 1 0,-0.471561 c 0.0649,-0.412378 0.1556,-0.819982 0.2186,-1.23236 0.0115,-0.07732 -0.0563,-0.167051 -0.0869,-0.251054 -0.11074,0.063 -0.30642,0.109777 -0.32361,0.192825 z"
     id="path24"
     style="stroke-width:0.0954578;fill:#ffffff" />
  <path
     d="m 25.246814,23.440608 c -0.08114,0.405695 -0.119322,0.819982 -0.183279,1.323999 0.021,0.02386 0.09546,0.169915 0.156551,0.164187 0.10214,-0.0086 0.265372,-0.101185 0.280646,-0.182324 0.07446,-0.405695 0.116458,-0.818073 0.153687,-1.229496 0.0067,-0.07732 -0.06109,-0.161324 -0.09546,-0.242463 -0.107867,0.05441 -0.298783,0.09355 -0.312147,0.166097 z"
     id="path25"
     style="stroke-width:0.0954578;fill:#ffffff" />
  <path
     d="m 25.377591,23.087414 c 0.185188,0 0.365603,0 0.381831,-0.250099 0,-0.03914 -0.106913,-0.129823 -0.157505,-0.124095 -0.200461,0.01623 -0.294965,0.131731 -0.224326,0.374194 z"
     id="path26"
     style="stroke-width:0.0954578;fill:#ffffff" />
  <metadata
     id="metadata26">
    <rdf:RDF>
      <cc:Work
         rdf:about="">
        <dc:title>think-africa-creative-client</dc:title>
      </cc:Work>
    </rdf:RDF>
  </metadata>
</svg>
