<?xml version="1.0" encoding="UTF-8" standalone="no"?>
<svg
   width="184"
   height="36"
   version="1.1"
   viewBox="0 0 141.45 36"
   id="svg14"
   sodipodi:docname="logo-dark.svg"
   inkscape:version="1.3.2 (091e20ef0f, 2023-11-25)"
   xmlns:inkscape="http://www.inkscape.org/namespaces/inkscape"
   xmlns:sodipodi="http://sodipodi.sourceforge.net/DTD/sodipodi-0.dtd"
   xmlns="http://www.w3.org/2000/svg"
   xmlns:svg="http://www.w3.org/2000/svg">
  <defs
     id="defs14" />
  <sodipodi:namedview
     id="namedview14"
     pagecolor="#ffffff"
     bordercolor="#000000"
     borderopacity="0.25"
     inkscape:showpageshadow="2"
     inkscape:pageopacity="0.0"
     inkscape:pagecheckerboard="0"
     inkscape:deskcolor="#d1d1d1"
     inkscape:zoom="5.1304348"
     inkscape:cx="38.885593"
     inkscape:cy="18.029661"
     inkscape:window-width="1920"
     inkscape:window-height="1011"
     inkscape:window-x="0"
     inkscape:window-y="32"
     inkscape:window-maximized="1"
     inkscape:current-layer="svg14" />
  <path
     d="m98.075 20.796c-0.42436 0.51866-1.0373 0.84872-1.721 0.8723-0.9666 0-1.556-0.778-1.556-2.6405 0-1.9568 0.63654-2.6876 1.6503-2.6876 0.58939 0.0236 1.1788 0.23576 1.6267 0.61297zm2.1454 2.4754v-12.66l-2.1454 0.30648v4.6444c-0.58939-0.49508-1.2495-1.0373-2.4047-1.0373-2.0039 0-3.1356 1.6739-3.1356 4.5265 0 2.7819 1.2967 4.3851 3.2534 4.3851 0.94303-0.0236 1.8389-0.47151 2.4283-1.2024l0.14146 1.0138zm-7.9921-6.7898v-1.9332c-1.8153 0.0236-2.8055 1.2731-3.112 1.6032l-0.16503-1.4145h-1.8389v8.558h2.1454v-5.6346c0.35364-0.33006 1.1552-1.1552 2.9705-1.1788zm-9.2652 4.7387c-0.40079 0.40078-0.94303 0.63654-1.5088 0.66012-0.58939 0-1.1552-0.25934-1.1552-1.1788 0-1.1552 0.82515-1.4381 2.6405-1.556v2.0747zm2.0746 2.0511v-5.3517c0-1.886-0.0472-3.3713-2.7584-3.3713-1.1316 0.0471-2.2633 0.30649-3.3006 0.75442l0.37721 1.2259c0.70727-0.21218 1.4617-0.33006 2.1925-0.35364 1.2495 0 1.4145 0.44794 1.4145 1.4381v0.44793c-1.9332 0.11788-4.7151 0.0471-4.7151 2.7348 0 1.8153 1.0373 2.664 2.3576 2.664 0.94303-0.0471 1.8153-0.44793 2.4519-1.1552l0.16503 0.9666zm-10.373-2.4519c-0.42436 0.51867-1.0373 0.84873-1.721 0.8723-0.9666 0-1.556-0.778-1.556-2.6405 0-1.9568 0.63654-2.6876 1.6503-2.6876 0.58939 0.0236 1.1788 0.23575 1.6267 0.61296zm2.1454 2.4519v-12.66l-2.1454 0.30648v4.6444c-0.58939-0.49508-1.2495-1.0373-2.4047-1.0373-2.0039 0-3.1356 1.6739-3.1356 4.5265 0 2.7819 1.2967 4.3851 3.2534 4.3851 0.94302-0.0236 1.8389-0.47151 2.4283-1.2024l0.14145 1.0138zm-9.3831 0v-5.5874c0-1.391-0.07073-3.1591-2.4047-3.1591-1.2259 0-2.4047 0.8723-2.9234 1.3202l-0.16503-1.1316h-1.8625v8.558h2.1454v-6.1768c0.33006-0.21218 1.1788-0.77799 1.9568-0.77799 0.9666 0 1.0609 0.68369 1.0609 1.7682v5.1866zm-11.363-2.0511c-0.40079 0.40078-0.94302 0.63654-1.5088 0.66012-0.58939 0-1.1552-0.25934-1.1552-1.1788 0-1.1552 0.82515-1.4381 2.6405-1.556v2.0747zm2.0747 2.0511v-5.3517c0-1.886-0.04715-3.3713-2.7583-3.3713-1.1316 0.0471-2.2633 0.30649-3.3006 0.75442l0.37721 1.2259c0.70727-0.21218 1.4617-0.33006 2.1925-0.35364 1.2495 0 1.4145 0.44794 1.4145 1.4381v0.44793c-1.9332 0.11788-4.7151 0.0471-4.7151 2.7348 0 1.8153 1.0373 2.664 2.3576 2.664 0.94303-0.0471 1.8153-0.44793 2.4519-1.1552l0.16503 0.9666zm-7.2849-0.42436-0.44794-1.2259c-0.44794 0.16503-0.91945 0.25934-1.4145 0.25934-0.89588 0-0.94303-0.56582-0.94303-1.2731v-4.4322h2.3576l0.21218-1.4617h-2.5462v-2.7112l-1.8625 0.30649-0.30648 2.4047-1.4381 0.25933v1.1788h1.4381v4.1493c0 1.1788 0.04715 2.0982 0.66012 2.6405 0.35363 0.30648 0.91945 0.51866 1.721 0.51866 0.89588 0 1.7917-0.21218 2.5697-0.61296zm-6.5305-3.1591c0-2.0511-1.2731-2.7819-3.0413-3.3477-1.5796-0.49509-2.5697-0.80157-2.5697-1.8625 0-1.1552 0.9666-1.6267 2.0511-1.6267 0.91945 0.0236 1.8389 0.1886 2.6876 0.49508l0.49509-1.5088c-1.0609-0.44793-2.1925-0.68369-3.3477-0.70727-2.5462 0-4.1257 1.3202-4.1257 3.5128 0 3.3949 3.6306 3.1591 5.0452 4.2436 0.35364 0.25933 0.56582 0.68369 0.56582 1.108 0 1.0138-0.8723 1.721-2.2633 1.721-0.94302 0-1.8861-0.23576-2.7348-0.6837l-0.75442 1.4853c0.0943 0.0943 1.4381 0.91945 3.6071 0.91945 2.8291 0 4.4086-1.391 4.3851-3.7485zm97.132 3.6071-3.5599-4.4794 3.3242-4.0786h-2.2868l-3.0648 3.8192v-7.9214l-2.1454 0.30648v12.354h2.1454v-4.0078l3.0884 4.0078zm-9.6896 0v-5.5874c0-1.391-0.0707-3.1591-2.4047-3.1591-1.2259 0-2.4047 0.8723-2.9234 1.3202l-0.16503-1.1316h-1.8625v8.558h2.1454v-6.1768c0.33006-0.21218 1.1788-0.778 1.9568-0.778 0.9666 0 1.0845 0.68369 1.0845 1.7682v5.1866zm-11.34-2.0746c-0.40079 0.40078-0.94303 0.63654-1.5088 0.66012-0.58939 0-1.1552-0.25934-1.1552-1.1788 0-1.1552 0.82515-1.4381 2.6405-1.556v2.0747zm2.0746 2.0511v-5.3517c0-1.886-0.0471-3.3713-2.7584-3.3713-1.1316 0.0471-2.2633 0.30649-3.3006 0.75442l0.37721 1.2259c0.70727-0.21218 1.4617-0.33006 2.1925-0.35364 1.2495 0 1.4145 0.44794 1.4145 1.4381v0.44793c-1.9332 0.11788-4.7151 0.0471-4.7151 2.7348 0 1.8153 1.0373 2.664 2.3576 2.664 0.94303-0.0471 1.8153-0.44793 2.4519-1.1552l0.16503 0.9666zm-10.326-3.5364c0 0.8723-0.35363 1.4145-0.89587 1.6974-0.54224 0.25933-1.0845 0.25933-2.0511 0.25933h-0.82515v-3.7721h1.1552c1.0609 0 1.4381 0.0471 1.8153 0.25933 0.51866 0.23576 0.82515 0.75442 0.80157 1.556zm-0.14145-5.2102c0 1.3674-0.63654 1.8625-2.7112 1.8625h-0.91945v-3.5128h1.1552c1.0609 0 1.4617 0.0471 1.8625 0.28291 0.40079 0.30648 0.66012 0.82515 0.61297 1.3674zm2.4519 5.4931c0-1.8153-0.99017-2.7348-2.7584-2.9234 1.6503-0.25933 2.4754-1.2259 2.4754-2.8526 0-2.947-2.5462-2.9941-4.7151-2.9941h-3.277v12h2.9234c2.0982 0 2.7112-0.0707 3.442-0.35363 1.2024-0.40079 1.9804-1.5796 1.9096-2.8762z"
     fill="#fff"
     stroke-width=".23576"
     id="path1"
     style="fill:#171414;fill-opacity:1" />
  <path
     transform="matrix(.23576 0 0 .23576 -5.2042 -57.548)"
     d="m85.2 395.8c-35.6-11.8-58-37-61.4-69.3-1.5-13.7 1-44.5 2.6-61.7 0.5-7.5 5.9-13.8 13.2-15.5 16.1-3.4 32.4-5.2 48.9-5.2 16.4 0.1 32.8 1.8 48.8 5.2 7.3 1.6 12.7 7.9 13.3 15.5l0.1 1.1c2.1 23.1 4.1 48.4 2.4 60.8-5.2 38.1-35 60.6-61.2 69l-3.4 1.1z"
     fill="#fff"
     id="path2"
     style="fill:#171414;fill-opacity:1" />
  <path
     transform="matrix(.23576 0 0 .23576 -5.2042 -57.548)"
     d="m140.8 264.8c-0.1-3-2.2-5.6-5.1-6.3-15.4-3.3-31-5-46.7-5.1-15.7 0.1-31.4 1.8-46.7 5.1-2.9 0.7-5 3.3-5.1 6.3-1.2 12.9-4 46.3-2.6 59.6 3.2 30.1 24.9 50.1 50.9 59.8 1.3 0.5 2.6 0.9 3.9 1.3 0.3-0.1 9-2.5 9-2.5 1.7-0.9 7.3-3.6 9-4.7 16.7-10.9 31-33.2 36.1-53.9 3-13.1-1.5-46.7-2.7-59.6z"
     fill="#fff"
     id="path3"
     style="fill:#171414;fill-opacity:1" />
  <path
     class="st3"
     transform="matrix(.23576 0 0 .23576 -5.2042 -57.548)"
     d="m116 358c9-9.2 14.7-21.2 16-34.1l1.7-1.5c-0.7 15.3-7.3 25.2-16 33.9"
     fill="#171414"
     id="path4"
     style="fill:#ffffff" />
  <path
     class="st4"
     transform="matrix(.23576 0 0 .23576 -5.2042 -57.548)"
     d="m131.2 267.5s-33.6-8.3-71.2-2.1l-1.6 1.6c9.7-1.4 19.5-2.1 29.2-2.2 14.1 0.1 28.1 1.5 41.9 4.3z"
     fill="#171414"
     id="path5"
     style="fill:#ffffff" />
  <path
     class="st5"
     transform="matrix(.23576 0 0 .23576 -5.2042 -57.548)"
     d="m132.4 281.8-1.6 1.7c-4.8 2.7-11.2 5.9-20.2 5.9h-2c-12.5-0.7-19.7-7.7-30.2-8.2h-2c-5.7-0.1-11.4 1.3-16.4 4.1l1.6-1.6c5-2.8 10.7-4.2 16.4-4.1h2c10.4 0.6 17.8 7.3 30.3 8h2c7.1-0.1 14-2.1 20.1-5.8"
     fill="#171414"
     id="path6"
     style="fill:#ffffff" />
  <path
     class="st6"
     transform="matrix(.23576 0 0 .23576 -5.2042 -57.548)"
     d="m133.6 322.5-1.6 1.6c-3.1 2.9-10.9 8.4-20.1 8.4-9.6 0-15.5-3.9-20.5-5.4l1.6-1.6c5 1.6 10.9 5 20.5 5 7.4-0.2 14.5-3 20.1-8"
     fill="#171414"
     id="path7"
     style="fill:#ffffff" />
  <path
     class="st7"
     transform="matrix(.23576 0 0 .23576 -5.2042 -57.548)"
     d="m132.3 281.8-1.6 1.6c0.5 7.4 1.1 15.6 1.3 23l0.1 7.3 1.7-1.6c0.1 0.1 0.2-18.6-1.5-30.3z"
     fill="#171414"
     id="path8"
     style="fill:#ffffff" />
  <path
     class="st8"
     transform="matrix(.23576 0 0 .23576 -5.2042 -57.548)"
     d="m125.3 364-1.6 1.6c-4.9 4.9-10.5 9.2-16.5 12.7l1.6-1.6c6.1-3.5 11.6-7.8 16.5-12.7z"
     fill="#171414"
     id="path9"
     style="fill:#ffffff" />
  <polygon
     class="st9"
     transform="matrix(.23576 0 0 .23576 -5.2042 -57.548)"
     points="79.4 318.6 108.8 376.7 107.3 378.3 77.8 320.2"
     fill="#171414"
     id="polygon9"
     style="fill:#ffffff" />
  <polygon
     class="st10"
     transform="matrix(.23576 0 0 .23576 -5.2042 -57.548)"
     points="45.4 294.3 84 371.7 82.1 373.3 43.8 296.2"
     fill="#171414"
     id="polygon10"
     style="fill:#ffffff" />
  <path
     class="st11"
     transform="matrix(.23576 0 0 .23576 -5.2042 -57.548)"
     d="m99.8 381.4-1.6 1.6c-3.4 1.6-7 2.9-10.5 4.1l1.6-1.6c3.4-1.6 6.9-3 10.5-4.1"
     fill="#171414"
     id="path10"
     style="fill:#ffffff" />
  <path
     class="st12"
     transform="matrix(.23576 0 0 .23576 -5.2042 -57.548)"
     d="m89.4 385.4-1.7 1.7c-27.9-9.2-51.6-29.3-55-61.3-1.4-13.5 1.4-47.2 2.6-60.3 0.1-1.8 0.9-3.4 2.1-4.7l1.6-1.6c-1.2 1.3-2 2.9-2.1 4.7-1.2 13.1-4 46.7-2.6 60.3 3.4 32 27.2 52 55.1 61.2"
     fill="#171414"
     id="path11"
     style="fill:#ffffff" />
  <path
     class="st13"
     transform="matrix(.23576 0 0 .23576 -5.2042 -57.548)"
     d="m131.6 272.6-1.6 1.6c-0.2-1.7-0.4-3.5-0.5-5l1.7-1.7s0.4 3.3 0.4 5.1z"
     fill="#171414"
     id="path12"
     style="fill:#ffffff" />
  <path
     class="st14"
     transform="matrix(.23576 0 0 .23576 -5.2042 -57.548)"
     d="m61.4 277.6c0-0.9-0.4-1.7-1.1-2.2l-11.5-8.7c-0.2-0.2-0.5-0.3-0.8-0.3-0.4 0-0.7 0.1-1 0.4l-1.6 1.6c0.3-0.3 0.6-0.4 1-0.4 0.3 0 0.6 0.1 0.8 0.3l11.5 8.7c0.7 0.6 1.1 1.4 1.1 2.3v5.8l1.6-1.6z"
     fill="#171414"
     id="path13"
     style="fill:#ffffff" />
  <path
     class="st15"
     transform="matrix(.23576 0 0 .23576 -5.2042 -57.548)"
     d="m141.7 264c-0.1-3.1-2.2-5.7-5.2-6.4-15.5-3.3-31.4-5-47.2-5.1-15.9 0.1-31.7 1.8-47.2 5.1-3 0.7-5.1 3.3-5.2 6.4-1.2 13.1-4 46.8-2.6 60.3 3.3 30.5 24.9 50.2 51.1 59.9 1.3 0.5 2.6 0.9 3.9 1.3l0.9-0.3h0.1c3.3-1.1 6.5-2.4 9.6-3.8l-47.4-93.2-4.7-3.5c-0.7-0.5-1.2-1.4-1.2-2.3v-14.5c0-0.8 0.6-1.4 1.4-1.5 0.3 0 0.6 0.1 0.8 0.3l11.5 8.7c0.7 0.6 1.1 1.4 1.1 2.3v5.8c5-2.8 10.7-4.2 16.4-4.1h2c10.4 0.6 17.7 7.6 30.2 8.2h2c9 0 15.4-3.2 20.2-5.9 0.5 7.4 1.1 15.6 1.3 23l0.1 7.3c-5.7 4.7-15 8.8-20.3 8.8-8.8 0-14.8-5.6-23.1-5.6-3.9 0-7.7 1.2-11 3.3l29.4 58.1c3.6-2.1 7.1-4.6 10.4-7.2 13.4-10.9 22.9-25.9 24.9-45.3 1.8-13.4-1-47.1-2.2-60.1zm-58 107.7c-0.9-0.4-1.8-0.8-2.7-1.2-19.6-9.6-33.6-25.4-36-47.5-0.6-6.1-0.3-17.1 0.4-28.4zm28.4-93.6h-2c-12.5-0.7-19.4-7.2-29.9-7.7h-1.7c-3.2 0-6.3 0.4-9.3 1.3l-9.2-6.3c9.7-1.4 19.5-2.1 29.3-2.1 14.1 0.1 28.1 1.5 41.9 4.2 0 0 0.3 3.4 0.4 5.1-5.9 3.6-12.6 5.5-19.5 5.5zm0.2 83.1-16-31.6c-0.8-1.6-1.9-3-3.2-4.1 5 1.6 10.9 5.4 20.5 5.4 9.2 0 16.9-5.5 20.1-8.4v0.5c-1.9 16.1-9.8 28.8-21.4 38.2z"
     fill="#171414"
     id="path14"
     style="fill:#ffffff" />
</svg>
