<svg width="184" height="36" version="1.1" viewBox="0 0 132.64 36" xmlns="http://www.w3.org/2000/svg">
 <path d="m15.112 0.74172c-0.73545-0.17701-1.1356-0.23593-1.3277-0.23715-0.41756 1e-3 -0.80427 0.34837-0.80396 0.77837l0.07572 10.467c-2.3008-0.0488-4.3501 0.0512-6.6444 0.39739 0 0-0.08334-10.427-0.08349-10.532-0.0028-0.29228-0.32842-0.50475-1.5658-0.79936-0.73324-0.1776-1.1344-0.24-1.3252-0.24052-0.42198 3e-3 -0.80956 0.35012-0.80338 0.78059l0.07869 11.53c-0.24548 0.062-1.4272 0.32509-2.0809 0.54426-0.65806 0.21662-0.74528 0.70335-0.51808 1.3694 0.357 1.0778 1.5579 2.3507 2.264 2.0544 0.17068-0.0741 0.36586-0.12841 0.36586-0.12841 0.02619 2.8109 0.04582 4.8042 0.04582 4.8042l0.03414 4.4343c0.0056 0.29389 0.1098 0.50653 1.3478 0.79995 0.73737 0.1792 1.3517 0.2372 1.5491 0.23563 0.41569-5e-3 0.79701-0.34778 0.79609-0.77628l-0.07706-10.619c2.7624-0.66011 4.895-0.84509 6.6345-0.98655l0.08126 11.276c0.0024 0.29578 0.11547 0.50503 1.3538 0.79973 0.73419 0.17732 1.356 0.23568 1.5501 0.23536 0.41815-4e-3 0.79327-0.34915 0.79074-0.77857 0 0-0.17033-24.586-0.17314-24.609-5e-3 -0.29272-0.32867-0.5057-1.5645-0.7997zm10.31 23.785c-4.9636-0.0573-3.6993-12.179 0.03034-12.628 4.163-0.49433 4.8403 12.686-0.03034 12.628zm-0.84734-15.403c-7.4598-0.0385-8.5235 16.386-0.99876 17.538 9.3824 1.4418 9.9708-17.49 0.99876-17.538zm32.347 8.6328c0.0513 3.2542-0.55457 6.5976-2.9111 6.573-4.9653-0.0507-3.9332-12.651 0.0302-12.629 1.9012 0.0147 2.8308 2.7435 2.8809 6.0564zm15.129-8.9504c-3.0053 0.50329-4.2673 4.6809-4.2622 5.2369 0 0-0.0303-3.6231-0.0273-3.6296-5e-3 -0.29169-0.32909-0.50221-1.5645-0.79971-0.7352-0.17605-1.1369-0.2393-1.3294-0.23838-0.41596 4e-3 -0.8026 0.34961-0.80268 0.77938l0.0593 8.1624 2e-3 0.4879c-0.0146 0.14194-0.0223 0.28679-0.0336 0.42822-0.20557 2.4816-0.41422 4.9644-2.0377 4.9771-2.1546 0.0173-1.537-4.5013-1.5253-6.4351 0.0472-5.9896 0.16765-7.3234 0.16821-7.3391-6.2e-4 -0.29287-0.32613-0.50502-1.5639-0.80122-0.73327-0.17387-1.1332-0.23557-1.3284-0.23461-0.41782 4.6e-4 -0.80522 0.34863-0.8055 0.77644l6e-3 0.58302c-0.95904-1.1238-2.2382-1.827-3.8466-1.8348-5.1524-0.0283-7.2501 7.9103-5.5705 13.126-0.23712 1.3875-0.73123 2.4206-2.0463 2.3263-2.0781-0.25455-1.9971-4.6229-2.0098-6.5597-0.05436-7.2849 0.1035-16.453 0.10339-16.466 3.87e-4 -0.29416-0.32589-0.50408-1.5626-0.80124-0.73427-0.17765-1.1356-0.23966-1.3303-0.23814-0.41816 4e-3 -0.80734 0.34953-0.802 0.77685l0.1133 15.917c-0.03883 1.5859 0.04174 2.9138 0.21426 4.0315-0.32816 1.9093-1.016 3.4869-2.412 3.3966-2.0746-0.25548-1.9943-4.6264-2.0061-6.5596-0.05179-7.288 0.10446-16.453 0.10382-16.47-0.0028-0.29228-0.33131-0.5016-1.5683-0.80003-0.73138-0.17572-1.1343-0.24-1.3243-0.23705-0.42139 5e-3 -0.80572 0.34673-0.80421 0.77744l0.11597 16.136c-0.18756 7.7459 2.5033 9.1615 4.078 9.3511 0.79017 0.0959 3.5223-0.16789 4.3751-3.2913 0.88176 2.4536 2.3215 3.1612 3.3194 3.2448 0.64228 0.0553 3.194-0.15209 4.2012-2.8079 0.8517 1.4512 2.1129 2.471 3.8149 2.6876 2.488 0.31326 4.314-0.91229 5.4694-2.8452 0.62107 2.0524 1.6529 2.6316 2.7511 2.842 0.81299 0.15502 2.6834-8e-3 3.7864-1.8282l6e-3 0.89032c2e-3 0.29262 0.11583 0.50764 1.3542 0.80097 0.7314 0.17571 1.3554 0.23823 1.5456 0.23656 0.42324-3e-3 0.79666-0.34906 0.79549-0.77849 0 0-0.0138-1.8291-0.0311-4.4317-0.0116-1.8834 1.1343-8.8098 4.081-9.0426 0.18612-0.0161 0.60188 0.0151 0.89857 0.10998 2.3346 0.78989 2.2535-4.1166-0.76854-3.6126zm12.077 7.6194c0.18616 4.5083-0.46808 7.694-2.8559 7.7116-4.9676 0.0356-3.9333-12.652 0.0276-12.629 1.6786 0.0108 2.7176 2.1339 2.8283 4.9176zm3.5855-15.388c-2e-3 -0.2911-0.33114-0.50605-1.5685-0.80202-0.73088-0.17249-1.1333-0.23455-1.3237-0.23484-0.41782 4.6e-4 -0.80894 0.3486-0.80397 0.77838l0.071 9.5943c-0.93521-1.0077-2.1518-1.6329-3.6654-1.6413-7.456-0.0429-8.519 16.559-0.99716 17.539 2.5537 0.33292 4.411-1.0174 5.5546-3.0974 0.89129 2.2674 2.289 2.9137 3.2397 3.0989 0.68215 0.13278 2.956-0.10768 4.037-2.4141 0.38814-0.82369 0.59159-1.952-0.07-2.1609-0.29168-0.0888-0.56623 0.0973-0.61512 0.26631-0.35981 1.4009-0.83356 2.1846-1.956 2.1021-2.0712-0.25539-1.9943-4.6264-2.0073-6.5593-0.049-7.2863 0.10725-16.12 0.10501-16.469z" fill="#fff" fill-rule="evenodd" stroke-width=".13822"/>
 <path d="m97.337 20.441c-1.4185-0.23698-2.783 0.96333-3.0358 2.5062-0.26003 1.5424 0.6844 2.9882 2.102 3.222 1.4179 0.2361 2.7776-0.8262 3.032-2.3719 0.25687-1.5416-0.68064-3.1225-2.0983-3.3564z" fill="#808080" fill-rule="evenodd" stroke-width=".13822"/>
</svg>
