<svg width="36" height="36" version="1.1" viewBox="0 0 25.951 36" xmlns="http://www.w3.org/2000/svg">
 <g transform="translate(-.27273 4.2474)">
  <path d="m15.112 0.74172c-0.73545-0.17701-1.1356-0.23593-1.3277-0.23715-0.41756 1e-3 -0.80427 0.34837-0.80396 0.77837l0.07572 10.467c-2.3008-0.0488-4.3501 0.0512-6.6444 0.39739 0 0-0.08334-10.427-0.08349-10.532-0.0028-0.29228-0.32842-0.50475-1.5658-0.79936-0.73324-0.1776-1.1344-0.24-1.3252-0.24052-0.42198 3e-3 -0.80956 0.35012-0.80338 0.78059l0.07869 11.53c-0.24548 0.062-1.4272 0.32509-2.0809 0.54426-0.65806 0.21662-0.74528 0.70335-0.51808 1.3694 0.357 1.0778 1.5579 2.3507 2.264 2.0544 0.17068-0.0741 0.36586-0.12841 0.36586-0.12841 0.02619 2.8109 0.04582 4.8042 0.04582 4.8042l0.03414 4.4343c0.0056 0.29389 0.1098 0.50653 1.3478 0.79995 0.73737 0.1792 1.3517 0.2372 1.5491 0.23563 0.41569-5e-3 0.79701-0.34778 0.79609-0.77628l-0.07706-10.619c2.7624-0.66011 4.895-0.84509 6.6345-0.98655l0.08126 11.276c0.0024 0.29578 0.11547 0.50503 1.3538 0.79973 0.73419 0.17732 1.356 0.23568 1.5501 0.23536 0.41815-4e-3 0.79327-0.34915 0.79074-0.77857 0 0-0.17033-24.586-0.17314-24.609-5e-3 -0.29272-0.32867-0.5057-1.5645-0.7997z" fill="#171414"/>
  <path d="m21.508 20.441c-1.4185-0.23698-2.783 0.96333-3.0358 2.5062-0.26003 1.5424 0.6844 2.9882 2.102 3.222 1.4179 0.2361 2.7776-0.8262 3.032-2.3719 0.25687-1.5416-0.68064-3.1225-2.0983-3.3564z" fill="#666" fill-rule="evenodd" stroke-width=".13822"/>
 </g>
</svg>
