<?xml version="1.0" encoding="UTF-8" standalone="no"?>
<svg
   width="184"
   height="36"
   version="1.1"
   viewBox="0 0 36 36"
   id="svg4"
   sodipodi:docname="logo-dark.svg"
   inkscape:version="1.3.2 (091e20ef0f, 2023-11-25)"
   xmlns:inkscape="http://www.inkscape.org/namespaces/inkscape"
   xmlns:sodipodi="http://sodipodi.sourceforge.net/DTD/sodipodi-0.dtd"
   xmlns="http://www.w3.org/2000/svg"
   xmlns:svg="http://www.w3.org/2000/svg">
  <defs
     id="defs4" />
  <sodipodi:namedview
     id="namedview4"
     pagecolor="#ffffff"
     bordercolor="#000000"
     borderopacity="0.25"
     inkscape:showpageshadow="2"
     inkscape:pageopacity="0.0"
     inkscape:pagecheckerboard="0"
     inkscape:deskcolor="#d1d1d1"
     inkscape:zoom="2.2173913"
     inkscape:cx="91.77451"
     inkscape:cy="17.813725"
     inkscape:window-width="1920"
     inkscape:window-height="1011"
     inkscape:window-x="0"
     inkscape:window-y="32"
     inkscape:window-maximized="1"
     inkscape:current-layer="svg4" />
  <path
     d="m28.667 18c0 5.8949-4.7718 10.667-10.667 10.667v-10.667zm-10.667-10.667v10.667h-10.667c0-5.8949 4.7718-10.667 10.667-10.667z"
     fill="#fff"
     id="path1"
     style="fill:#171414;fill-opacity:1" />
  <path
     d="m18 7.3333c5.8949 0 10.667 4.7718 10.667 10.667h-10.667zm-10.667 10.667h10.667v10.667c-5.8949 0-10.667-4.7718-10.667-10.667z"
     fill="none"
     id="path2" />
  <path
     d="m18 7.3333v0.58484c5.5586 0 10.082 4.5222 10.082 10.082h0.58484c0-5.8907-4.776-10.667-10.667-10.667m0 20.748c-5.5586 0-10.082-4.5222-10.082-10.082h-0.58484c0 5.8907 4.776 10.667 10.667 10.667m0-28.667c-9.9409 4e-15 -18 8.0591-18 18 0 9.9409 8.0592 18 18 18 9.9409 0 18-8.0592 18-18 0-9.9409-8.0591-18-18-18zm16.829 18c0 9.2942-7.5342 16.829-16.829 16.829-9.2953 0-16.829-7.5353-16.829-16.829 0-9.2942 7.5353-16.829 16.829-16.829 9.2942 0 16.829 7.5353 16.829 16.829z"
     fill="#fff"
     id="path3"
     style="fill:#171414;fill-opacity:1" />
  <path
     d="m10.308 9.3164c0.5752-0.60168 0.90086-1.2968 0.32566-1.9605-0.31297-0.36017-0.83848-0.43893-1.2741-0.26147l-0.043351 0.016801 0.013746-0.037802c0.064498-0.17116 0.10573-0.71719-0.36267-1.0942-0.22839-0.18376-0.51493-0.25201-0.80464-0.22261-0.5403 0.054603-0.95584 0.42107-2.0872 1.6738-0.34152 0.37802-0.83848 0.97446-1.1366 1.3609l3.1075 2.9276c1.0299-1.132 1.4496-1.553 2.2617-2.4025zm-4.0549-0.71614c0.62595-0.76024 1.291-1.4501 1.5924-1.7232 0.095161-0.086105 0.19878-0.17221 0.32461-0.20581 0.20407-0.055653 0.41448 0.088205 0.46206 0.29612 0.047581 0.20896-0.084588 0.40742-0.23156 0.57123-0.33095 0.37067-1.5448 1.6318-1.5448 1.6318zm1.217 1.1467s1.1821-1.2412 1.568-1.6381c0.15332-0.15751 0.25165-0.25306 0.35738-0.30452 0.1364-0.066154 0.28548-0.079805 0.41871 0.0084004 0.13111 0.087155 0.19138 0.23731 0.1586 0.38642-0.039122 0.17746-0.18504 0.34652-0.30557 0.47568-0.16283 0.17326-1.5649 1.6633-1.567 1.6654zm10.885-3.922 0.99496-2.2135 0.06344-0.19636-0.01797 0.20476 0.10468 2.958c0.34892 0.032552 0.70948 0.080855 1.0647 0.13966l-0.16178-4.3809c-0.49695-0.054603-0.99179-0.093455-1.4866-0.11446l-0.98016 2.4162-0.03489 0.17956-0.03489-0.17956-0.9791-2.4162c-0.49484 0.021001-0.98968 0.059854-1.4866 0.11446l-0.16178 4.3809c0.35527-0.058804 0.71582-0.10606 1.0647-0.13966l0.10468-2.958-0.01797-0.20476 0.06344 0.19636 0.99496 2.2135h0.90615zm8.2632 4.5793c0.24425 0.26042 0.59634 0.68044 0.79407 0.9356l3.6415-2.2954c-0.18186-0.23626-0.47158-0.59538-0.68833-0.84845l-2.3061 1.5142-0.15754 0.13441 0.11736-0.17011 1.0182-2.0182-0.72005-0.71509-2.0333 1.0112-0.17129 0.11656 0.1364-0.15646 1.5258-2.2891c-0.26857-0.22681-0.52656-0.43473-0.85539-0.68674l-2.3114 3.6133c0.29289 0.22366 0.67882 0.55233 0.92518 0.776l2.176-1.1215 0.13957-0.10186-0.10256 0.13861z"
     fill="#fff"
     id="path4"
     style="fill:#171414;fill-opacity:1" />
</svg>
